<svg width="129" height="129" viewBox="0 0 129 129" fill="none" xmlns="http://www.w3.org/2000/svg">
<g clip-path="url(#clip0_2516_4564)">
<path d="M105 4.5C101.143 4.5 97.3731 5.64366 94.1664 7.78634C90.9596 9.92903 88.4603 12.9745 86.9844 16.5377C85.5084 20.1008 85.1223 24.0216 85.8747 27.8043C86.6271 31.5869 88.4843 35.0615 91.2114 37.7886C93.9386 40.5157 97.4131 42.3729 101.196 43.1253C104.978 43.8777 108.899 43.4916 112.462 42.0156C116.025 40.5397 119.071 38.0404 121.214 34.8336C123.356 31.6269 124.5 27.8567 124.5 24C124.49 18.8313 122.432 13.8772 118.778 10.2224C115.123 6.56755 110.169 4.50991 105 4.5ZM103.5 15C103.5 14.6022 103.658 14.2206 103.939 13.9393C104.221 13.658 104.602 13.5 105 13.5C105.398 13.5 105.779 13.658 106.061 13.9393C106.342 14.2206 106.5 14.6022 106.5 15V25.5C106.5 25.8978 106.342 26.2794 106.061 26.5607C105.779 26.842 105.398 27 105 27C104.602 27 104.221 26.842 103.939 26.5607C103.658 26.2794 103.5 25.8978 103.5 25.5V15ZM105 34.5C104.555 34.5 104.12 34.368 103.75 34.1208C103.38 33.8736 103.092 33.5222 102.921 33.111C102.751 32.6999 102.706 32.2475 102.793 31.811C102.88 31.3746 103.094 30.9737 103.409 30.659C103.724 30.3443 104.125 30.13 104.561 30.0432C104.998 29.9564 105.45 30.001 105.861 30.1713C106.272 30.3416 106.624 30.63 106.871 31C107.118 31.37 107.25 31.805 107.25 32.25C107.25 32.8467 107.013 33.419 106.591 33.841C106.169 34.2629 105.597 34.5 105 34.5Z" fill="#F14E62"/>
</g>
<path fill-rule="evenodd" clip-rule="evenodd" d="M79.2875 28.3058C79.3477 29.3539 79.4807 30.4005 79.6871 31.4383C80.565 35.8514 82.7317 39.905 85.9133 43.0867C89.095 46.2683 93.1486 48.435 97.5617 49.3129C98.5766 49.5147 99.6001 49.6464 100.625 49.7084V112.306C100.625 121.142 93.4616 128.306 84.625 128.306H16.625C7.78845 128.306 0.625 121.142 0.625 112.306V44.3058C0.625 35.4692 7.78844 28.3058 16.625 28.3058H79.2875ZM64.4253 51.9522L67.3992 48.9783L73.4996 55.0786L79.5999 48.9783L82.5738 51.9522L76.4735 58.0525L82.5737 64.1527L79.5998 67.1266L73.4996 61.0264L67.3993 67.1266L64.4254 64.1527L70.5257 58.0525L64.4253 51.9522ZM36.8247 51.9522L33.8508 48.9783L27.7505 55.0785L21.6502 48.9783L18.6763 51.9522L24.7766 58.0524L18.6763 64.1527L21.6502 67.1266L27.7505 61.0263L33.8508 67.1266L36.8247 64.1527L30.7244 58.0524L36.8247 51.9522ZM72.5734 109.993C72.5734 104.172 70.261 98.5893 66.1449 94.4732C62.0288 90.3571 56.4461 88.0446 50.625 88.0446C44.804 88.0446 39.2213 90.3571 35.1052 94.4732C30.989 98.5893 28.6766 104.172 28.6766 109.993H50.625H72.5734Z" fill="#F14E62"/>
<defs>
<clipPath id="clip0_2516_4564">
<rect width="48" height="48" fill="white" transform="translate(81)"/>
</clipPath>
</defs>
</svg>
