<svg width="132" height="30" viewBox="0 0 132 30" fill="none" xmlns="http://www.w3.org/2000/svg">
<path d="M6.48963 26.5395C8.48166 27.7287 10.7588 28.3555 13.0788 28.3534C20.1844 28.3534 25.9656 22.5722 25.9656 15.4666C25.9685 13.1008 25.316 10.7804 24.0807 8.7628C24.1025 8.6718 24.1136 8.57856 24.1137 8.48498C24.1138 8.182 24.0011 7.88983 23.7977 7.66531C23.5942 7.4408 23.3145 7.29999 23.013 7.2703C22.9729 7.26533 22.9326 7.26283 22.8922 7.26282C22.574 7.26623 22.2697 7.39366 22.044 7.618C21.8184 7.84234 21.6892 8.14588 21.6839 8.46403C21.6786 8.78219 21.7977 9.08984 22.0158 9.32154C22.2339 9.55323 22.5338 9.69068 22.8517 9.70464C23.9624 11.587 24.5053 13.7504 24.415 15.9342C24.3247 18.118 23.6051 20.2291 22.3428 22.0134C21.8852 22.6559 21.363 23.2497 20.7842 23.7856C18.9513 25.4863 16.6075 26.5334 14.1177 26.7638C11.6279 26.9942 9.13176 26.395 7.01786 25.0594L6.73256 24.8788L2.17533 26.0985L3.42116 21.4391L3.2592 21.1631C2.19583 19.3341 1.66569 17.2438 1.72877 15.1291C1.79185 13.0143 2.44564 10.9594 3.61613 9.19697V6.71777C1.77899 8.69844 0.611931 11.2072 0.280429 13.8882C-0.0510734 16.5693 0.469797 19.2867 1.76919 21.6552L0.00012207 28.2793L6.48963 26.5395ZM22.8922 9.11225C22.7795 9.11242 22.6689 9.08204 22.5722 9.02434C22.4754 8.96664 22.3961 8.88379 22.3428 8.7846C22.2929 8.69261 22.2667 8.58962 22.2667 8.48498C22.2667 8.38033 22.2929 8.27734 22.3428 8.18536C22.3958 8.08822 22.4736 8.00686 22.5682 7.94955C22.6629 7.89223 22.7711 7.86101 22.8817 7.85905C22.9923 7.85709 23.1015 7.88447 23.1982 7.93839C23.2948 7.99232 23.3754 8.07088 23.4319 8.16607C23.4883 8.26127 23.5185 8.36971 23.5194 8.48037C23.5203 8.59103 23.4919 8.69996 23.4371 8.79608C23.3823 8.89221 23.303 8.9721 23.2073 9.02763C23.1115 9.08317 23.0028 9.11236 22.8922 9.11225Z" fill="#157066"/>
<path d="M4.81158 7.70174C6.68282 5.70089 9.21681 4.44739 11.9427 4.17419V16.4966C11.9427 16.7725 12.0523 17.0371 12.2474 17.2322C12.4425 17.4273 12.7071 17.5369 12.9829 17.5369C13.2588 17.5369 13.5234 17.4273 13.7185 17.2322C13.9136 17.0371 14.0232 16.7725 14.0232 16.4966V4.1555C15.948 4.31373 17.7997 4.96457 19.4002 6.04542C19.4383 6.33945 19.582 6.60958 19.8046 6.80546C20.0272 7.00133 20.3134 7.10956 20.6099 7.10997C20.6527 7.10988 20.6956 7.1076 20.7382 7.10312C20.8828 7.08866 21.0233 7.04635 21.1518 6.97854C21.3913 6.85938 21.5849 6.66471 21.7028 6.42458C21.8207 6.18446 21.8562 5.91222 21.804 5.64987C21.7469 5.37062 21.5946 5.11985 21.3732 4.94036C21.1518 4.76087 20.875 4.66378 20.59 4.66567C20.4581 4.667 20.3273 4.69037 20.2031 4.73481C18.3615 3.50254 16.2309 2.77092 14.0207 2.61192C13.7093 2.58825 13.3978 2.57642 13.0764 2.57642C12.6939 2.57642 12.3139 2.59261 11.9402 2.62625C9.31539 2.856 6.82526 3.88943 4.80908 5.58571L4.81158 7.70174ZM20.6099 5.26055C20.721 5.2606 20.8301 5.29038 20.9258 5.34679C21.0215 5.40319 21.1004 5.48418 21.1543 5.58135C21.2073 5.67492 21.2351 5.78061 21.2351 5.88813C21.2351 5.99565 21.2073 6.10134 21.1543 6.19492C21.1001 6.29103 21.0215 6.37114 20.9265 6.42714C20.8314 6.48314 20.7232 6.51304 20.6129 6.51383C20.5026 6.51462 20.394 6.48626 20.2981 6.43162C20.2023 6.37699 20.1225 6.29801 20.067 6.20268C20.0114 6.10734 19.982 5.99903 19.9818 5.8887C19.9815 5.77836 20.0104 5.66991 20.0655 5.57431C20.1206 5.47872 20.1999 5.39936 20.2955 5.34426C20.3911 5.28917 20.4996 5.26029 20.6099 5.26055Z" fill="#157066"/>
<path d="M16.7041 8.73163C16.8738 8.73297 17.0417 8.69725 17.1962 8.62698C18.1561 9.20382 18.9838 9.97641 19.6252 10.8944C20.2667 11.8125 20.7076 12.8553 20.9191 13.9551C21.1307 15.0548 21.1082 16.1868 20.8531 17.2773C20.598 18.3678 20.1161 19.3924 19.4387 20.2842C19.4221 20.2832 19.4054 20.2832 19.3888 20.2842C19.147 20.284 18.9107 20.3556 18.7096 20.4899C18.5085 20.6241 18.3518 20.815 18.2592 21.0383C18.1666 21.2617 18.1424 21.5075 18.1895 21.7446C18.2366 21.9817 18.353 22.1996 18.524 22.3705C18.695 22.5415 18.9128 22.6579 19.1499 22.705C19.3871 22.7522 19.6328 22.7279 19.8562 22.6353C20.0795 22.5428 20.2704 22.386 20.4046 22.1849C20.5389 21.9838 20.6105 21.7475 20.6103 21.5057C20.6102 21.4676 20.608 21.4295 20.6035 21.3917C21.452 20.3133 22.059 19.0653 22.3834 17.732C22.7077 16.3987 22.7419 15.0113 22.4836 13.6636C22.2252 12.316 21.6804 11.0396 20.886 9.92077C20.0915 8.80194 19.066 7.86683 17.8789 7.17871C17.8067 6.92287 17.6529 6.69761 17.441 6.53716C17.229 6.37672 16.9705 6.28986 16.7047 6.28981C16.5258 6.2888 16.3492 6.32954 16.1889 6.40879C15.9782 6.50592 15.7998 6.66139 15.6747 6.85679C15.5496 7.05219 15.4832 7.27934 15.4832 7.51134C15.4829 7.63321 15.5012 7.7544 15.5374 7.87076C15.6145 8.11999 15.7693 8.33801 15.9793 8.4929C16.1892 8.6478 16.4432 8.73146 16.7041 8.73163ZM19.6735 22.062C19.5851 22.1069 19.4874 22.1305 19.3882 22.1311C19.3057 22.1312 19.224 22.115 19.1478 22.0835C19.0716 22.052 19.0023 22.0057 18.944 21.9474C18.8857 21.8891 18.8395 21.8198 18.8079 21.7436C18.7764 21.6674 18.7602 21.5857 18.7603 21.5032C18.7609 21.404 18.7846 21.3064 18.8294 21.2179C18.8745 21.1298 18.9397 21.0537 19.0198 20.9956C19.0999 20.9375 19.1925 20.8992 19.2903 20.8838C19.388 20.8684 19.4879 20.8763 19.582 20.9069C19.6761 20.9375 19.7616 20.9899 19.8315 21.0599C19.9015 21.1298 19.9539 21.2153 19.9845 21.3094C20.0151 21.4035 20.023 21.5034 20.0076 21.6012C19.9922 21.6989 19.9539 21.7915 19.8958 21.8716C19.8377 21.9517 19.7616 22.0169 19.6735 22.062ZM16.7041 6.88158C16.8283 6.88146 16.9498 6.91819 17.0531 6.98714C17.1565 7.05609 17.2371 7.15414 17.2847 7.2689C17.3323 7.38366 17.3448 7.50996 17.3206 7.63182C17.2963 7.75368 17.2365 7.86561 17.1487 7.95346C17.0608 8.04131 16.9489 8.10113 16.827 8.12534C16.7052 8.14955 16.5789 8.13706 16.4641 8.08946C16.3494 8.04186 16.2513 7.96128 16.1824 7.85793C16.1134 7.75457 16.0767 7.63309 16.0768 7.50885C16.0773 7.3427 16.1436 7.1835 16.2611 7.06607C16.3786 6.94864 16.5379 6.88253 16.7041 6.8822V6.88158Z" fill="#157066"/>
<path d="M17.8642 2.43774C18.0506 2.4386 18.2347 2.39594 18.4018 2.31316C23.5956 4.42421 27.2683 9.52587 27.2683 15.4685C27.272 18.381 26.3745 21.2233 24.6988 23.6056C24.3826 23.6167 24.083 23.75 23.8631 23.9775C23.6432 24.205 23.5201 24.5088 23.5196 24.8252C23.5197 24.8987 23.527 24.9719 23.5414 25.0439C23.5922 25.3252 23.7403 25.5798 23.9596 25.7631C24.179 25.9464 24.4559 26.0468 24.7418 26.0468C24.7592 26.048 24.7767 26.048 24.7941 26.0468C25.1087 26.034 25.4062 25.9 25.6242 25.6727C25.8422 25.4455 25.9637 25.1426 25.9633 24.8277C25.9631 24.7567 25.9568 24.6859 25.9446 24.6159C27.8472 21.9466 28.867 18.7489 28.8611 15.471C28.8611 8.85748 24.796 3.19521 19.0272 0.846824C18.9381 0.569877 18.7531 0.333845 18.5054 0.181282C18.2577 0.0287179 17.9637 -0.0303405 17.6763 0.0147521C17.3889 0.0598446 17.1271 0.206121 16.938 0.427213C16.7489 0.648305 16.6451 0.929666 16.6451 1.22057C16.6449 1.41065 16.6897 1.59808 16.776 1.76749C16.8773 1.96916 17.0328 2.13867 17.225 2.25704C17.4171 2.3754 17.6385 2.43797 17.8642 2.43774ZM24.7418 25.4506C24.6175 25.4508 24.496 25.414 24.3927 25.3451C24.2893 25.2761 24.2088 25.1781 24.1612 25.0633C24.1136 24.9486 24.1011 24.8223 24.1253 24.7004C24.1495 24.5785 24.2093 24.4666 24.2971 24.3787C24.385 24.2909 24.4969 24.2311 24.6188 24.2069C24.7407 24.1827 24.867 24.1952 24.9817 24.2428C25.0965 24.2904 25.1945 24.3709 25.2635 24.4743C25.3324 24.5776 25.3692 24.6991 25.369 24.8234C25.3687 24.9896 25.3025 25.149 25.1849 25.2665C25.0674 25.3841 24.908 25.4503 24.7418 25.4506ZM17.8642 0.590184C17.9882 0.589445 18.1097 0.625535 18.2132 0.693886C18.3167 0.762237 18.3976 0.859773 18.4457 0.974138C18.4937 1.0885 18.5067 1.21455 18.4831 1.33632C18.4594 1.45809 18.4002 1.5701 18.3128 1.65816C18.2254 1.74623 18.1139 1.80638 17.9923 1.831C17.8707 1.85563 17.7446 1.84362 17.6298 1.79649C17.5151 1.74936 17.4169 1.66924 17.3477 1.56627C17.2786 1.46331 17.2415 1.34212 17.2413 1.21808C17.2411 1.05236 17.3065 0.893309 17.4232 0.775663C17.5399 0.658016 17.6985 0.591336 17.8642 0.590184Z" fill="#157066"/>
<path d="M41.6648 19V8.80597H37.6563V6.90539H47.9195V8.80597H43.911V19H41.6648ZM51.6785 11.9333H57.6913V13.782H51.6785V11.9333ZM51.8513 17.1167H58.6761V19H49.6052V6.90539H58.4342V8.78869H51.8513V17.1167ZM61.1801 19V6.90539H63.0288L70.6139 16.2182H69.6982V6.90539H71.927V19H70.0783L62.4932 9.68715H63.409V19H61.1801ZM77.2412 11.9333H83.254V13.782H77.2412V11.9333ZM77.414 17.1167H84.2388V19H75.1679V6.90539H83.9969V8.78869H77.414V17.1167ZM92.3409 19.0864C91.4424 19.0864 90.6073 18.9366 89.8355 18.6372C89.0753 18.3262 88.413 17.8942 87.8486 17.3413C87.2842 16.7884 86.8465 16.1434 86.5354 15.4062C86.2244 14.6575 86.0689 13.8396 86.0689 12.9527C86.0689 12.0658 86.2244 11.2537 86.5354 10.5165C86.8465 9.76778 87.2842 9.11697 87.8486 8.56408C88.4245 8.01118 89.0926 7.58499 89.8528 7.28551C90.6131 6.9745 91.4424 6.819 92.3409 6.819C93.1932 6.819 93.988 6.95722 94.7252 7.23367C95.4739 7.51012 96.1132 7.93055 96.6431 8.49497L96.0902 9.06514C95.5718 8.55832 94.9959 8.19548 94.3624 7.97663C93.7404 7.74625 93.0781 7.63107 92.3754 7.63107C91.6037 7.63107 90.8837 7.76353 90.2157 8.02846C89.5591 8.29339 88.9832 8.66775 88.4879 9.15153C88.0041 9.63532 87.624 10.1997 87.3475 10.8448C87.0826 11.4898 86.9501 12.1925 86.9501 12.9527C86.9501 13.7129 87.0826 14.4156 87.3475 15.0606C87.624 15.7057 88.0041 16.2701 88.4879 16.7539C88.9832 17.2376 89.5591 17.612 90.2157 17.8769C90.8837 18.1419 91.6037 18.2743 92.3754 18.2743C93.0781 18.2743 93.7404 18.1649 94.3624 17.946C94.9959 17.7157 95.5718 17.3413 96.0902 16.823L96.6431 17.3931C96.1132 17.9576 95.4739 18.3838 94.7252 18.6717C93.988 18.9482 93.1932 19.0864 92.3409 19.0864ZM97.2524 19L102.816 6.90539H103.697L109.261 19H108.31L103.058 7.45829H103.438L98.2027 19H97.2524ZM99.2912 15.5962L99.5849 14.8533H106.824L107.118 15.5962H99.2912ZM111.456 19V6.90539H112.337V18.2052H119.3V19H111.456ZM121.563 19V6.90539H122.444V18.2052H129.407V19H121.563Z" fill="#157066"/>
<path d="M62.335 27.9681C62.0585 27.9681 61.7927 27.9238 61.5375 27.8351C61.2859 27.743 61.091 27.626 60.9528 27.4843L61.1069 27.1812C61.2381 27.3088 61.4135 27.4169 61.6332 27.5055C61.8565 27.5906 62.0904 27.6331 62.335 27.6331C62.5689 27.6331 62.7585 27.6048 62.9038 27.5481C63.0527 27.4878 63.1608 27.4081 63.2281 27.3088C63.299 27.2096 63.3345 27.0997 63.3345 26.9792C63.3345 26.8339 63.2919 26.7169 63.2069 26.6283C63.1254 26.5397 63.0173 26.4706 62.8826 26.421C62.7479 26.3678 62.599 26.3218 62.436 26.2828C62.273 26.2438 62.1099 26.203 61.9469 26.1605C61.7839 26.1144 61.6332 26.0542 61.495 25.9798C61.3603 25.9053 61.2505 25.8079 61.1654 25.6874C61.0839 25.5633 61.0431 25.402 61.0431 25.2036C61.0431 25.0193 61.091 24.8509 61.1867 24.6985C61.2859 24.5426 61.4365 24.4185 61.6386 24.3264C61.8406 24.2307 62.0993 24.1828 62.4147 24.1828C62.6238 24.1828 62.8312 24.213 63.0367 24.2732C63.2423 24.3299 63.4195 24.4097 63.5684 24.5125L63.4355 24.8261C63.276 24.7198 63.1059 24.6418 62.9251 24.5922C62.7479 24.5426 62.576 24.5178 62.4094 24.5178C62.1861 24.5178 62.0018 24.5479 61.8565 24.6081C61.7112 24.6684 61.6031 24.7499 61.5322 24.8527C61.4649 24.9519 61.4312 25.0653 61.4312 25.1929C61.4312 25.3383 61.472 25.4552 61.5535 25.5438C61.6386 25.6324 61.7484 25.7015 61.8831 25.7512C62.0213 25.8008 62.172 25.8451 62.335 25.8841C62.498 25.923 62.6593 25.9656 62.8188 26.0117C62.9818 26.0577 63.1307 26.118 63.2653 26.1924C63.4036 26.2633 63.5134 26.359 63.595 26.4795C63.68 26.6 63.7226 26.7577 63.7226 26.9526C63.7226 27.1334 63.6729 27.3017 63.5737 27.4577C63.4745 27.6101 63.3221 27.7341 63.1165 27.8298C62.9145 27.922 62.654 27.9681 62.335 27.9681ZM64.5797 27.9362V24.2147H64.904L66.6052 27.1174H66.4351L68.1204 24.2147H68.4447V27.9362H68.0672V24.8048H68.1576L66.6052 27.463H66.4192L64.8562 24.8048H64.9572V27.9362H64.5797ZM69.0618 27.9362L70.763 24.2147H71.1511L72.8523 27.9362H72.4376L70.8747 24.4433H71.0341L69.4711 27.9362H69.0618ZM69.7316 26.942L69.8486 26.623H72.0123L72.1293 26.942H69.7316ZM73.4679 27.9362V24.2147H74.8608C75.1762 24.2147 75.4474 24.2661 75.6742 24.3689C75.901 24.4681 76.0747 24.6135 76.1952 24.8048C76.3192 24.9927 76.3813 25.2213 76.3813 25.4907C76.3813 25.7529 76.3192 25.9798 76.1952 26.1711C76.0747 26.359 75.901 26.5043 75.6742 26.6071C75.4474 26.7063 75.1762 26.7559 74.8608 26.7559H73.6859L73.8613 26.5752V27.9362H73.4679ZM76.0091 27.9362L75.0522 26.5858H75.4775L76.4398 27.9362H76.0091ZM73.8613 26.6071L73.6859 26.421H74.8502C75.2223 26.421 75.5041 26.3395 75.6955 26.1765C75.8904 26.0134 75.9879 25.7848 75.9879 25.4907C75.9879 25.1929 75.8904 24.9626 75.6955 24.7995C75.5041 24.6365 75.2223 24.555 74.8502 24.555H73.6859L73.8613 24.3689V26.6071ZM77.9809 27.9362V24.555H76.6731V24.2147H79.6821V24.555H78.3743V27.9362H77.9809ZM82.6058 27.9681C82.3648 27.9681 82.1503 27.9291 81.9625 27.8511C81.7746 27.7696 81.6258 27.6579 81.5159 27.5162C81.4096 27.3744 81.3564 27.2096 81.3564 27.0218C81.3564 26.8623 81.3919 26.7169 81.4628 26.5858C81.5336 26.4511 81.6471 26.32 81.803 26.1924C81.9625 26.0613 82.1734 25.9248 82.4356 25.7831C82.6589 25.659 82.8326 25.5527 82.9566 25.4641C83.0842 25.3719 83.1746 25.2851 83.2278 25.2036C83.2809 25.1185 83.3075 25.0281 83.3075 24.9324C83.3075 24.7942 83.2597 24.6826 83.164 24.5975C83.0718 24.5125 82.9389 24.4699 82.7653 24.4699C82.5774 24.4699 82.4321 24.5178 82.3293 24.6135C82.2265 24.7056 82.1751 24.8261 82.1751 24.975C82.1751 25.0494 82.1858 25.1203 82.207 25.1876C82.2318 25.255 82.2761 25.3294 82.3399 25.4109C82.4073 25.4924 82.4994 25.5952 82.6164 25.7193L84.5834 27.7448L84.3655 27.9946L82.3134 25.8841C82.1893 25.7529 82.0901 25.6395 82.0157 25.5438C81.9448 25.4446 81.8951 25.3507 81.8668 25.2621C81.8384 25.1734 81.8243 25.0795 81.8243 24.9803C81.8243 24.8208 81.8615 24.6826 81.9359 24.5656C82.0139 24.4451 82.1237 24.353 82.2655 24.2892C82.4073 24.2218 82.5739 24.1882 82.7653 24.1882C82.9389 24.1882 83.0895 24.2183 83.2171 24.2785C83.3483 24.3352 83.4493 24.4185 83.5202 24.5284C83.5946 24.6383 83.6318 24.7712 83.6318 24.9271C83.6318 25.0618 83.5981 25.1876 83.5308 25.3046C83.467 25.4215 83.3607 25.5367 83.2118 25.6501C83.063 25.76 82.8609 25.8841 82.6058 26.0223C82.3825 26.1463 82.2053 26.2597 82.0741 26.3625C81.9465 26.4653 81.8562 26.5663 81.803 26.6656C81.7498 26.7613 81.7233 26.8676 81.7233 26.9845C81.7233 27.1192 81.7605 27.2379 81.8349 27.3407C81.9129 27.44 82.0192 27.5179 82.1539 27.5746C82.2921 27.6278 82.4498 27.6544 82.627 27.6544C82.8751 27.6544 83.0966 27.603 83.2916 27.5002C83.4865 27.3974 83.6495 27.2415 83.7807 27.0324C83.9153 26.8233 84.0128 26.561 84.0731 26.2456L84.3761 26.3413C84.3088 26.6957 84.1936 26.9934 84.0305 27.2344C83.8675 27.4754 83.6655 27.6579 83.4245 27.782C83.1835 27.906 82.9106 27.9681 82.6058 27.9681ZM87.6757 27.9681C87.3993 27.9681 87.1335 27.9238 86.8783 27.8351C86.6267 27.743 86.4317 27.626 86.2935 27.4843L86.4477 27.1812C86.5788 27.3088 86.7542 27.4169 86.974 27.5055C87.1973 27.5906 87.4312 27.6331 87.6757 27.6331C87.9097 27.6331 88.0993 27.6048 88.2446 27.5481C88.3934 27.4878 88.5015 27.4081 88.5689 27.3088C88.6398 27.2096 88.6752 27.0997 88.6752 26.9792C88.6752 26.8339 88.6327 26.7169 88.5476 26.6283C88.4661 26.5397 88.358 26.4706 88.2233 26.421C88.0886 26.3678 87.9398 26.3218 87.7767 26.2828C87.6137 26.2438 87.4507 26.203 87.2876 26.1605C87.1246 26.1144 86.974 26.0542 86.8358 25.9798C86.7011 25.9053 86.5912 25.8079 86.5061 25.6874C86.4246 25.5633 86.3839 25.402 86.3839 25.2036C86.3839 25.0193 86.4317 24.8509 86.5274 24.6985C86.6267 24.5426 86.7773 24.4185 86.9793 24.3264C87.1813 24.2307 87.44 24.1828 87.7555 24.1828C87.9646 24.1828 88.1719 24.213 88.3775 24.2732C88.5831 24.3299 88.7603 24.4097 88.9091 24.5125L88.7762 24.8261C88.6167 24.7198 88.4466 24.6418 88.2658 24.5922C88.0886 24.5426 87.9167 24.5178 87.7502 24.5178C87.5269 24.5178 87.3426 24.5479 87.1973 24.6081C87.052 24.6684 86.9439 24.7499 86.873 24.8527C86.8056 24.9519 86.772 25.0653 86.772 25.1929C86.772 25.3383 86.8127 25.4552 86.8942 25.5438C86.9793 25.6324 87.0892 25.7015 87.2239 25.7512C87.3621 25.8008 87.5127 25.8451 87.6757 25.8841C87.8388 25.923 88 25.9656 88.1595 26.0117C88.3226 26.0577 88.4714 26.118 88.6061 26.1924C88.7443 26.2633 88.8542 26.359 88.9357 26.4795C89.0208 26.6 89.0633 26.7577 89.0633 26.9526C89.0633 27.1334 89.0137 27.3017 88.9144 27.4577C88.8152 27.6101 88.6628 27.7341 88.4572 27.8298C88.2552 27.922 87.9947 27.9681 87.6757 27.9681ZM89.9205 27.9362V24.2147H90.3139V27.9362H89.9205ZM91.5247 27.9362V24.2147H91.849L93.5502 27.1174H93.3801L95.0654 24.2147H95.3897V27.9362H95.0122V24.8048H95.1026L93.5502 27.463H93.3642L91.8012 24.8048H91.9022V27.9362H91.5247ZM96.6022 27.9362V24.2147H97.9951C98.3105 24.2147 98.5816 24.2661 98.8085 24.3689C99.0353 24.4681 99.209 24.6135 99.3295 24.8048C99.4535 24.9927 99.5155 25.2213 99.5155 25.4907C99.5155 25.7529 99.4535 25.9798 99.3295 26.1711C99.209 26.359 99.0353 26.5043 98.8085 26.6071C98.5816 26.7099 98.3105 26.7613 97.9951 26.7613H96.8202L96.9956 26.5752V27.9362H96.6022ZM96.9956 26.6071L96.8202 26.4157H97.9844C98.3566 26.4157 98.6383 26.3359 98.8297 26.1765C99.0247 26.0134 99.1221 25.7848 99.1221 25.4907C99.1221 25.1929 99.0247 24.9626 98.8297 24.7995C98.6383 24.6365 98.3566 24.555 97.9844 24.555H96.8202L96.9956 24.3689V26.6071ZM100.366 27.9362V24.2147H100.76V27.5959H102.844V27.9362H100.366ZM103.848 25.8787H105.815V26.2137H103.848V25.8787ZM103.89 27.5959H106.128V27.9362H103.497V24.2147H106.049V24.555H103.89V27.5959Z" fill="#157066"/>
</svg>
