<svg width="67" height="60" viewBox="0 0 67 60" fill="none" xmlns="http://www.w3.org/2000/svg">
<path d="M62.8747 9.55169C63.5671 10.445 64.586 11.0266 65.7073 11.1686C66.8285 11.3106 67.9603 11.0014 68.8535 10.309C69.7468 9.61659 70.3284 8.59769 70.4704 7.47645C70.6125 6.3552 70.3033 5.22347 69.6108 4.3302" stroke="#F0ABAF" stroke-width="1.67962" stroke-linecap="round" stroke-linejoin="round"/>
<path d="M29.1936 35.6594C29.886 36.5526 30.1953 37.6844 30.0532 38.8056M28.4363 41.6382C27.5431 42.3306 26.4113 42.6398 25.2901 42.4978C24.1688 42.3557 23.1499 41.7741 22.4575 40.8809" stroke="#F0ABAF" stroke-width="1.67962" stroke-linecap="round" stroke-linejoin="round"/>
<path d="M15.7215 46.1025C16.4139 46.9958 16.7231 48.1275 16.5811 49.2487C16.439 50.37 15.8574 51.3889 14.9642 52.0813C14.0709 52.7737 12.9392 53.0829 11.8179 52.9409C10.6967 52.7989 9.67776 52.2172 8.98535 51.324" stroke="#F0ABAF" stroke-width="1.67962" stroke-linecap="round" stroke-linejoin="round"/>
<path d="M42.666 25.2164C43.3585 26.1096 43.6677 27.2414 43.5256 28.3626C43.3836 29.4839 42.802 30.5028 41.9087 31.1952C41.0155 31.8876 39.8837 32.1968 38.7625 32.0548C38.1839 31.9815 37.6325 31.7911 37.1392 31.5013M35.9299 30.4379C36.0189 30.5526 36.1133 30.6623 36.2125 30.7665" stroke="#F0ABAF" stroke-width="1.67962" stroke-linecap="round" stroke-linejoin="round"/>
<path d="M56.1385 14.7733C56.3583 15.0569 56.5395 15.3645 56.6799 15.6882M49.4023 19.9948C50.0948 20.888 51.1137 21.4696 52.2349 21.6117C53.3561 21.7537 54.4879 21.4445 55.3811 20.7521C56.2744 20.0597 56.856 19.0408 56.9981 17.9195C57.0525 17.4899 57.0406 17.0588 56.9664 16.6402" stroke="#F0ABAF" stroke-width="1.67962" stroke-linecap="round" stroke-linejoin="round"/>
<path d="M1.3894 53.3992C1.53142 52.278 2.11304 51.2591 3.00631 50.5667C3.89957 49.8742 5.03131 49.565 6.15255 49.7071C7.27379 49.8491 8.2927 50.4307 8.98511 51.324" stroke="#F0ABAF" stroke-width="1.67962" stroke-linecap="round" stroke-linejoin="round"/>
<path d="M29.1938 35.6594C28.5014 34.7661 28.1922 33.6344 28.3342 32.5131C28.4762 31.3919 29.0579 30.373 29.9511 29.6806C30.8444 28.9881 31.9761 28.6789 33.0974 28.821C34.2186 28.963 35.2375 29.5446 35.9299 30.4379" stroke="#F0ABAF" stroke-width="1.67962" stroke-linecap="round" stroke-linejoin="round"/>
<path d="M22.4575 40.8809C21.7651 39.9876 20.7462 39.406 19.625 39.264C18.5037 39.1219 17.372 39.4311 16.4787 40.1235C15.5855 40.816 15.0038 41.8349 14.8618 42.9561C14.774 43.6494 14.8587 44.3466 15.0998 44.9891" stroke="#F0ABAF" stroke-width="1.67962" stroke-linecap="round" stroke-linejoin="round"/>
<path d="M42.6662 25.2162C41.9738 24.323 41.6646 23.1912 41.8066 22.07C41.8935 21.3843 42.1448 20.7368 42.5312 20.1789M49.4023 19.9948C48.7099 19.1015 47.691 18.5199 46.5698 18.3778C45.8841 18.291 45.1944 18.3729 44.5578 18.608" stroke="#F0ABAF" stroke-width="1.67962" stroke-linecap="round" stroke-linejoin="round"/>
<path d="M56.1384 14.7732C55.446 13.88 55.1368 12.7482 55.2788 11.627C55.4208 10.5058 56.0024 9.48686 56.8957 8.79444C57.789 8.10203 58.9207 7.79283 60.042 7.93485C61.1632 8.07687 62.1821 8.65849 62.8745 9.55176" stroke="#F0ABAF" stroke-width="1.67962" stroke-linecap="round" stroke-linejoin="round"/>
</svg>
