<svg width="150" height="126" viewBox="0 0 150 126" fill="none" xmlns="http://www.w3.org/2000/svg">
<path d="M57.0755 60.8126C61.5719 63.4969 66.712 64.9118 71.9487 64.907C87.9875 64.907 101.037 51.8575 101.037 35.8187C101.043 30.4786 99.5708 25.241 96.7823 20.6868C96.8316 20.4814 96.8566 20.2709 96.8568 20.0597C96.857 19.3758 96.6027 18.7163 96.1435 18.2095C95.6843 17.7027 95.053 17.3849 94.3724 17.3179C94.2819 17.3066 94.1908 17.301 94.0996 17.301C93.3814 17.3087 92.6945 17.5963 92.1852 18.1027C91.6758 18.6091 91.3842 19.2942 91.3722 20.0124C91.3603 20.7305 91.6291 21.425 92.1214 21.948C92.6137 22.471 93.2906 22.7812 94.0082 22.8127C96.5153 27.0617 97.7407 31.9448 97.5369 36.8741C97.3331 41.8034 95.7087 46.5687 92.8594 50.5963C91.8266 52.0464 90.6478 53.3869 89.3415 54.5965C85.2041 58.4354 79.9137 60.7988 74.2937 61.3189C68.6736 61.8389 63.0393 60.4864 58.2678 57.4719L57.6238 57.0641L47.3372 59.8171L50.1493 49.2999L49.7837 48.677C47.3834 44.5484 46.1868 39.8303 46.3292 35.0568C46.4716 30.2833 47.9473 25.645 50.5894 21.6668V16.0707C46.4425 20.5415 43.8082 26.2042 43.06 32.256C42.3117 38.3078 43.4874 44.4416 46.4204 49.7878L42.4272 64.7397L57.0755 60.8126ZM94.0996 21.4756C93.8453 21.4759 93.5957 21.4074 93.3773 21.2771C93.1589 21.1469 92.98 20.9599 92.8594 20.736C92.7468 20.5283 92.6879 20.2959 92.6879 20.0597C92.6879 19.8235 92.7468 19.591 92.8594 19.3834C92.9791 19.1641 93.1547 18.9805 93.3684 18.8511C93.5821 18.7217 93.8262 18.6512 94.076 18.6468C94.3257 18.6424 94.5722 18.7042 94.7903 18.8259C95.0084 18.9476 95.1904 19.1249 95.3178 19.3398C95.4452 19.5547 95.5134 19.7995 95.5154 20.0493C95.5175 20.299 95.4534 20.5449 95.3297 20.7619C95.2059 20.9789 95.0269 21.1592 94.8108 21.2846C94.5948 21.4099 94.3494 21.4758 94.0996 21.4756Z" fill="white"/>
<path d="M53.2875 18.2936C57.5113 13.7772 63.2311 10.9478 69.3839 10.3311V38.1456C69.3839 38.7684 69.6313 39.3656 70.0717 39.806C70.512 40.2463 71.1093 40.4937 71.7321 40.4937C72.3548 40.4937 72.9521 40.2463 73.3924 39.806C73.8328 39.3656 74.0802 38.7684 74.0802 38.1456V10.2889C78.4248 10.6461 82.6045 12.1152 86.2172 14.5549C86.3032 15.2186 86.6276 15.8284 87.13 16.2705C87.6324 16.7126 88.2785 16.9569 88.9477 16.9578C89.0445 16.9576 89.1412 16.9525 89.2374 16.9424C89.5638 16.9097 89.8808 16.8142 90.171 16.6612C90.7116 16.3922 91.1486 15.9528 91.4146 15.4108C91.6807 14.8687 91.761 14.2542 91.6431 13.6621C91.5142 13.0317 91.1705 12.4657 90.6708 12.0605C90.171 11.6554 89.5461 11.4362 88.9027 11.4405C88.605 11.4435 88.3099 11.4963 88.0296 11.5966C83.8727 8.81508 79.0633 7.16365 74.0745 6.80476C73.3715 6.75133 72.6685 6.72461 71.943 6.72461C71.0796 6.72461 70.222 6.76116 69.3783 6.83709C63.4536 7.3557 57.8328 9.68836 53.2819 13.5172L53.2875 18.2936ZM88.9477 12.7833C89.1985 12.7834 89.4447 12.8506 89.6608 12.9779C89.8769 13.1053 90.055 13.2881 90.1766 13.5074C90.2961 13.7186 90.359 13.9572 90.359 14.1999C90.359 14.4426 90.2961 14.6811 90.1766 14.8924C90.0543 15.1093 89.8769 15.2901 89.6623 15.4165C89.4477 15.5429 89.2036 15.6104 88.9545 15.6122C88.7055 15.614 88.4604 15.55 88.244 15.4267C88.0276 15.3033 87.8477 15.1251 87.7223 14.9099C87.5969 14.6947 87.5305 14.4502 87.5299 14.2012C87.5293 13.9521 87.5945 13.7073 87.7189 13.4915C87.8432 13.2757 88.0223 13.0966 88.2381 12.9722C88.4539 12.8479 88.6987 12.7827 88.9477 12.7833Z" fill="white"/>
<path d="M80.1317 20.6177C80.5148 20.6207 80.8938 20.5401 81.2425 20.3814C83.4093 21.6835 85.2775 23.4274 86.7254 25.4996C88.1733 27.5718 89.1685 29.9257 89.646 32.4081C90.1236 34.8906 90.0728 37.4457 89.497 39.9072C88.9212 42.3687 87.8334 44.6812 86.3043 46.6943C86.2668 46.6922 86.2293 46.6922 86.1918 46.6943C85.6461 46.694 85.1125 46.8556 84.6586 47.1586C84.2047 47.4616 83.851 47.8925 83.642 48.3966C83.433 48.9007 83.3783 49.4555 83.4847 49.9908C83.5911 50.5261 83.8538 51.0177 84.2397 51.4036C84.6256 51.7895 85.1173 52.0523 85.6525 52.1587C86.1878 52.2651 86.7426 52.2103 87.2467 52.0014C87.7509 51.7924 88.1817 51.4386 88.4847 50.9847C88.7877 50.5308 88.9493 49.9973 88.9491 49.4515C88.9488 49.3655 88.9437 49.2796 88.9336 49.1942C90.8489 46.7601 92.219 43.943 92.9511 40.9335C93.6833 37.9239 93.7604 34.7922 93.1773 31.7503C92.5941 28.7084 91.3644 25.8272 89.5712 23.3018C87.778 20.7764 85.4632 18.6656 82.7835 17.1124C82.6206 16.5349 82.2735 16.0264 81.7951 15.6643C81.3167 15.3021 80.7331 15.1061 80.1331 15.106C79.7294 15.1037 79.3308 15.1956 78.9689 15.3745C78.4933 15.5938 78.0905 15.9447 77.8082 16.3858C77.5259 16.8268 77.3758 17.3395 77.3759 17.8632C77.3752 18.1383 77.4165 18.4118 77.4982 18.6745C77.6723 19.2371 78.0218 19.7292 78.4957 20.0788C78.9695 20.4284 79.5428 20.6173 80.1317 20.6177ZM86.8344 50.7071C86.6347 50.8085 86.4142 50.8619 86.1904 50.8632C86.0042 50.8634 85.8198 50.8269 85.6478 50.7557C85.4757 50.6845 85.3194 50.5802 85.1878 50.4485C85.0562 50.3169 84.9518 50.1605 84.8806 49.9885C84.8094 49.8165 84.7729 49.6321 84.7731 49.4459C84.7744 49.222 84.8278 49.0016 84.9292 48.8019C85.0308 48.6031 85.178 48.4312 85.3588 48.3001C85.5396 48.1691 85.7488 48.0826 85.9693 48.0478C86.1899 48.0131 86.4155 48.0309 86.6279 48.1C86.8402 48.1691 87.0332 48.2874 87.1911 48.4452C87.3489 48.6031 87.4672 48.7961 87.5363 49.0084C87.6054 49.2208 87.6233 49.4464 87.5885 49.667C87.5537 49.8876 87.4672 50.0968 87.3362 50.2775C87.2051 50.4583 87.0332 50.6055 86.8344 50.7071ZM80.1317 16.4417C80.4122 16.4414 80.6864 16.5243 80.9197 16.68C81.1529 16.8356 81.3348 17.0569 81.4423 17.316C81.5497 17.575 81.5779 17.8601 81.5233 18.1352C81.4686 18.4102 81.3336 18.6629 81.1353 18.8612C80.937 19.0595 80.6843 19.1945 80.4093 19.2491C80.1342 19.3038 79.8491 19.2756 79.5901 19.1681C79.3311 19.0607 79.1097 18.8788 78.9541 18.6455C78.7985 18.4122 78.7156 18.138 78.7158 17.8576C78.7169 17.4825 78.8665 17.1232 79.1318 16.8581C79.3972 16.5931 79.7567 16.4438 80.1317 16.4431V16.4417Z" fill="white"/>
<path d="M82.7499 6.4095C83.1708 6.41143 83.5863 6.31514 83.9633 6.12829C95.687 10.8934 103.977 22.4089 103.977 35.8227C103.985 42.3969 101.959 48.8127 98.1771 54.1899C97.4634 54.215 96.7872 54.5159 96.2908 55.0294C95.7944 55.5428 95.5165 56.2288 95.5155 56.943C95.5156 57.1087 95.5321 57.274 95.5647 57.4365C95.6794 58.0715 96.0135 58.6461 96.5087 59.0599C97.004 59.4736 97.6288 59.7003 98.2741 59.7002C98.3135 59.703 98.3529 59.703 98.3922 59.7002C99.1025 59.6715 99.774 59.3689 100.266 58.8559C100.758 58.3429 101.032 57.6594 101.031 56.9486C101.031 56.7883 101.017 56.6284 100.989 56.4705C105.284 50.4453 107.586 43.2274 107.572 35.8283C107.572 20.9003 98.3965 8.11926 85.375 2.81845C85.1741 2.19332 84.7564 1.66054 84.1973 1.31617C83.6382 0.971805 82.9745 0.838497 82.3258 0.940281C81.6771 1.04206 81.0861 1.37224 80.6593 1.8713C80.2326 2.37035 79.9981 3.00544 79.9983 3.66208C79.9978 4.09113 80.099 4.5142 80.2936 4.89659C80.5223 5.35182 80.8733 5.73442 81.3071 6.0016C81.7409 6.26879 82.2404 6.41002 82.7499 6.4095ZM98.2741 58.3546C97.9937 58.3549 97.7195 58.272 97.4862 58.1164C97.2529 57.9607 97.071 57.7394 96.9636 57.4804C96.8561 57.2213 96.8279 56.9362 96.8826 56.6612C96.9372 56.3861 97.0722 56.1334 97.2705 55.9351C97.4688 55.7368 97.7215 55.6018 97.9966 55.5472C98.2716 55.4925 98.5567 55.5207 98.8157 55.6282C99.0748 55.7356 99.2961 55.9175 99.4517 56.1508C99.6074 56.3841 99.6903 56.6583 99.69 56.9387C99.6893 57.314 99.5399 57.6737 99.2745 57.9391C99.0091 58.2045 98.6494 58.3539 98.2741 58.3546ZM82.7499 2.23916C83.0299 2.23749 83.3041 2.31895 83.5378 2.47324C83.7714 2.62752 83.954 2.84768 84.0625 3.10583C84.1709 3.36397 84.2003 3.64849 84.1469 3.92335C84.0935 4.19821 83.9597 4.45104 83.7625 4.64982C83.5653 4.8486 83.3136 4.98437 83.0392 5.03996C82.7647 5.09554 82.48 5.06842 82.221 4.96205C81.962 4.85567 81.7404 4.67482 81.5842 4.4424C81.4281 4.20998 81.3444 3.93645 81.3439 3.65645C81.3435 3.28239 81.4912 2.92338 81.7546 2.65782C82.018 2.39227 82.3759 2.24176 82.7499 2.23916Z" fill="white"/>
<path d="M16.7851 108.047H19.9051V93.8866H25.4731V91.2466H11.2171V93.8866H16.7851V108.047ZM30.9346 105.431V100.799H39.0466V98.2306H30.9346V93.8626H40.0786V91.2466H27.8146V108.047H40.4146V105.431H30.9346ZM55.7247 91.2466V102.623L46.4607 91.2466H43.8927V108.047H46.9887V96.6706L56.2527 108.047H58.8207V91.2466H55.7247ZM66.4424 105.431V100.799H74.5544V98.2306H66.4424V93.8626H75.5864V91.2466H63.3224V108.047H75.9224V105.431H66.4424ZM87.1765 108.167C85.9285 108.167 84.7685 107.959 83.6965 107.543C82.6405 107.111 81.7205 106.511 80.9365 105.743C80.1525 104.975 79.5445 104.079 79.1125 103.055C78.6805 102.015 78.4645 100.879 78.4645 99.6466C78.4645 98.4146 78.6805 97.2866 79.1125 96.2626C79.5445 95.2226 80.1525 94.3186 80.9365 93.5506C81.7365 92.7826 82.6645 92.1906 83.7205 91.7746C84.7765 91.3426 85.9285 91.1266 87.1765 91.1266C88.3605 91.1266 89.4645 91.3186 90.4885 91.7026C91.5285 92.0866 92.4165 92.6706 93.1525 93.4546L92.3845 94.2466C91.6645 93.5426 90.8645 93.0386 89.9845 92.7346C89.1205 92.4146 88.2005 92.2546 87.2245 92.2546C86.1525 92.2546 85.1525 92.4386 84.2245 92.8066C83.3125 93.1746 82.5125 93.6946 81.8245 94.3666C81.1525 95.0386 80.6245 95.8226 80.2405 96.7186C79.8725 97.6146 79.6885 98.5906 79.6885 99.6466C79.6885 100.703 79.8725 101.679 80.2405 102.575C80.6245 103.471 81.1525 104.255 81.8245 104.927C82.5125 105.599 83.3125 106.119 84.2245 106.487C85.1525 106.855 86.1525 107.039 87.2245 107.039C88.2005 107.039 89.1205 106.887 89.9845 106.583C90.8645 106.263 91.6645 105.743 92.3845 105.023L93.1525 105.815C92.4165 106.599 91.5285 107.191 90.4885 107.591C89.4645 107.975 88.3605 108.167 87.1765 108.167ZM93.9989 108.047L101.727 91.2466H102.951L110.679 108.047H109.359L102.063 92.0146H102.591L95.3189 108.047H93.9989ZM96.8309 103.319L97.2389 102.287H107.295L107.703 103.319H96.8309ZM113.729 108.047V91.2466H114.953V106.943H124.625V108.047H113.729ZM127.768 108.047V91.2466H128.992V106.943H138.664V108.047H127.768Z" fill="white"/>
<path d="M41.5514 119.004C43.05 119.004 43.7365 118.267 43.7365 117.405C43.7365 115.27 40.1281 116.241 40.1281 114.633C40.1281 114.047 40.6053 113.57 41.677 113.57C42.196 113.57 42.7821 113.729 43.2844 114.056L43.4937 113.562C43.0249 113.235 42.3384 113.043 41.677 113.043C40.1867 113.043 39.517 113.788 39.517 114.65C39.517 116.819 43.1253 115.831 43.1253 117.438C43.1253 118.016 42.6481 118.476 41.5514 118.476C40.7811 118.476 40.036 118.175 39.6174 117.765L39.3746 118.242C39.81 118.694 40.6723 119.004 41.5514 119.004ZM50.6622 113.093L48.1422 117.438L45.5971 113.093H45.0864V118.953H45.6808V114.29L47.9831 118.208H48.2761L50.5785 114.265V118.953H51.1729V113.093H50.6622ZM57.461 118.953H58.114L55.4349 113.093H54.8238L52.1447 118.953H52.7893L53.4926 117.388H56.7577L57.461 118.953ZM53.7186 116.886L55.1252 113.738L56.5317 116.886H53.7186ZM63.7635 118.953L62.3318 116.944C63.1858 116.668 63.6714 116.023 63.6714 115.102C63.6714 113.846 62.7672 113.093 61.2769 113.093H59.0835V118.953H59.703V117.095H61.2769C61.4444 117.095 61.5951 117.086 61.7458 117.07L63.0853 118.953H63.7635ZM61.2602 116.567H59.703V113.629H61.2602C62.4323 113.629 63.0518 114.165 63.0518 115.102C63.0518 116.023 62.4323 116.567 61.2602 116.567ZM66.1904 118.953H66.81V113.629H68.8695V113.093H64.1309V113.629H66.1904V118.953ZM76.5881 118.652L75.7509 117.79C75.9853 117.421 76.1611 116.969 76.2699 116.442L75.7843 116.291C75.7006 116.735 75.5667 117.112 75.3909 117.421L73.7834 115.764C74.7378 115.211 75.0895 114.801 75.0895 114.215C75.0895 113.486 74.5536 113.051 73.7248 113.051C72.8206 113.051 72.2429 113.553 72.2429 114.299C72.2429 114.751 72.4104 115.102 72.9797 115.688C71.9081 116.308 71.5062 116.819 71.5062 117.513C71.5062 118.401 72.3267 119.004 73.4736 119.004C74.269 119.004 74.9388 118.736 75.4327 118.208L76.2448 119.046L76.5881 118.652ZM73.7248 113.495C74.269 113.495 74.5788 113.788 74.5788 114.223C74.5788 114.642 74.3025 114.935 73.4569 115.42C72.9211 114.876 72.7955 114.633 72.7955 114.29C72.7955 113.821 73.1388 113.495 73.7248 113.495ZM73.5071 118.51C72.6616 118.51 72.0922 118.091 72.0922 117.455C72.0922 116.936 72.3769 116.567 73.3146 116.032L75.0811 117.848C74.6792 118.292 74.1434 118.51 73.5071 118.51ZM81.4578 119.004C82.9564 119.004 83.6429 118.267 83.6429 117.405C83.6429 115.27 80.0346 116.241 80.0346 114.633C80.0346 114.047 80.5118 113.57 81.5834 113.57C82.1025 113.57 82.6885 113.729 83.1908 114.056L83.4001 113.562C82.9313 113.235 82.2448 113.043 81.5834 113.043C80.0932 113.043 79.4234 113.788 79.4234 114.65C79.4234 116.819 83.0318 115.831 83.0318 117.438C83.0318 118.016 82.5546 118.476 81.4578 118.476C80.6876 118.476 79.9425 118.175 79.5239 117.765L79.2811 118.242C79.7164 118.694 80.5787 119.004 81.4578 119.004ZM84.9928 118.953H85.6123V113.093H84.9928V118.953ZM93.095 113.093L90.575 117.438L88.0298 113.093H87.5191V118.953H88.1136V114.29L90.4159 118.208H90.7089L93.0112 114.265V118.953H93.6056V113.093H93.095ZM97.7086 113.093H95.5151V118.953H96.1347V117.103H97.7086C99.1989 117.103 100.103 116.35 100.103 115.102C100.103 113.846 99.1989 113.093 97.7086 113.093ZM97.6919 116.559H96.1347V113.629H97.6919C98.864 113.629 99.4835 114.165 99.4835 115.102C99.4835 116.023 98.864 116.559 97.6919 116.559ZM101.443 118.953H105.344V118.418H102.062V113.093H101.443V118.953ZM106.992 118.418V116.241H110.023V115.713H106.992V113.629H110.391V113.093H106.373V118.953H110.517V118.418H106.992Z" fill="white"/>
</svg>
