<svg width="428" height="201" viewBox="0 0 428 201" fill="none" xmlns="http://www.w3.org/2000/svg">
<path d="M48.7645 26.5395C50.7566 27.7287 53.0337 28.3556 55.3537 28.3534C62.4593 28.3534 68.2405 22.5722 68.2405 15.4666C68.2434 13.1008 67.5909 10.7805 66.3556 8.76283C66.3774 8.67183 66.3885 8.57859 66.3886 8.48501C66.3887 8.18203 66.276 7.88986 66.0726 7.66534C65.8691 7.44083 65.5894 7.30002 65.2879 7.27033C65.2478 7.26536 65.2075 7.26286 65.1671 7.26285C64.8489 7.26626 64.5446 7.39369 64.3189 7.61803C64.0933 7.84237 63.9641 8.14591 63.9588 8.46406C63.9535 8.78222 64.0726 9.08987 64.2907 9.32157C64.5088 9.55326 64.8087 9.69071 65.1266 9.70467C66.2373 11.5871 66.7802 13.7504 66.6899 15.9342C66.5996 18.118 65.88 20.2291 64.6177 22.0134C64.1601 22.6559 63.6379 23.2497 63.0591 23.7856C61.2262 25.4863 58.8824 26.5334 56.3926 26.7638C53.9028 26.9942 51.4067 26.395 49.2928 25.0595L49.0075 24.8788L44.4502 26.0985L45.6961 21.4391L45.5341 21.1632C44.4707 19.3341 43.9406 17.2439 44.0037 15.1291C44.0668 13.0143 44.7205 10.9594 45.891 9.197V6.7178C44.0539 8.69847 42.8868 11.2072 42.5553 13.8883C42.2238 16.5694 42.7447 19.2868 44.0441 21.6553L42.275 28.2793L48.7645 26.5395ZM65.1671 9.11228C65.0544 9.11245 64.9438 9.08207 64.8471 9.02437C64.7503 8.96667 64.6711 8.88382 64.6177 8.78463C64.5678 8.69264 64.5416 8.58965 64.5416 8.48501C64.5416 8.38036 64.5678 8.27737 64.6177 8.18539C64.6707 8.08825 64.7485 8.00689 64.8431 7.94958C64.9378 7.89226 65.046 7.86104 65.1566 7.85908C65.2672 7.85712 65.3764 7.8845 65.4731 7.93842C65.5697 7.99235 65.6503 8.07091 65.7068 8.1661C65.7632 8.2613 65.7934 8.36974 65.7943 8.4804C65.7952 8.59106 65.7668 8.69999 65.712 8.79611C65.6572 8.89224 65.5779 8.97213 65.4822 9.02766C65.3864 9.0832 65.2777 9.11239 65.1671 9.11228V9.11228Z" fill="#157066"/>
<path d="M47.0865 7.70171C48.9577 5.70086 51.4917 4.44736 54.2176 4.17416V16.4966C54.2176 16.7725 54.3272 17.0371 54.5223 17.2322C54.7174 17.4273 54.982 17.5369 55.2578 17.5369C55.5337 17.5369 55.7983 17.4273 55.9934 17.2322C56.1885 17.0371 56.2981 16.7725 56.2981 16.4966V4.15547C58.2229 4.3137 60.0746 4.96454 61.6751 6.04539C61.7132 6.33942 61.8569 6.60955 62.0795 6.80542C62.3021 7.0013 62.5883 7.10953 62.8848 7.10994C62.9277 7.10985 62.9705 7.10757 63.0131 7.10309V7.10309C63.1577 7.08863 63.2982 7.04632 63.4267 6.97851C63.6662 6.85935 63.8598 6.66468 63.9777 6.42455C64.0956 6.18443 64.1311 5.91219 64.0789 5.64984C64.0218 5.37059 63.8695 5.11982 63.6481 4.94033C63.4267 4.76084 63.1499 4.66375 62.8649 4.66564C62.733 4.66697 62.6022 4.69034 62.478 4.73478C60.6364 3.50251 58.5058 2.77089 56.2956 2.61189C55.9842 2.58822 55.6727 2.57639 55.3513 2.57639C54.9688 2.57639 54.5888 2.59258 54.2151 2.62622C51.5903 2.85597 49.1002 3.88939 47.084 5.58568L47.0865 7.70171ZM62.8848 5.26052C62.9959 5.26057 63.105 5.29035 63.2007 5.34676C63.2964 5.40316 63.3753 5.48415 63.4292 5.58132C63.4822 5.67489 63.51 5.78058 63.51 5.8881C63.51 5.99562 63.4822 6.10131 63.4292 6.19489C63.375 6.291 63.2964 6.37111 63.2014 6.42711C63.1063 6.48311 62.9981 6.51301 62.8878 6.5138C62.7775 6.51459 62.6689 6.48623 62.573 6.43159C62.4772 6.37696 62.3974 6.29798 62.3419 6.20265C62.2863 6.10731 62.2569 5.999 62.2567 5.88867C62.2564 5.77833 62.2853 5.66988 62.3404 5.57428C62.3955 5.47869 62.4748 5.39933 62.5704 5.34423C62.666 5.28914 62.7745 5.26026 62.8848 5.26052V5.26052Z" fill="#157066"/>
<path d="M58.979 8.73166C59.1487 8.733 59.3166 8.69728 59.4711 8.62701C60.431 9.20385 61.2587 9.97644 61.9001 10.8945C62.5416 11.8125 62.9825 12.8554 63.194 13.9551C63.4056 15.0549 63.3831 16.1869 63.128 17.2774C62.8729 18.3679 62.391 19.3924 61.7136 20.2842C61.697 20.2833 61.6803 20.2833 61.6637 20.2842C61.4219 20.2841 61.1856 20.3557 60.9845 20.4899C60.7834 20.6242 60.6267 20.815 60.5341 21.0384C60.4415 21.2617 60.4173 21.5075 60.4644 21.7446C60.5115 21.9818 60.6279 22.1996 60.7989 22.3706C60.9699 22.5415 61.1877 22.6579 61.4248 22.7051C61.662 22.7522 61.9077 22.7279 62.1311 22.6354C62.3544 22.5428 62.5453 22.386 62.6795 22.185C62.8138 21.9839 62.8854 21.7475 62.8853 21.5057C62.8851 21.4676 62.8829 21.4296 62.8784 21.3917C63.7269 20.3134 64.3339 19.0653 64.6583 17.732C64.9826 16.3987 65.0168 15.0113 64.7585 13.6637C64.5001 12.316 63.9553 11.0396 63.1609 9.9208C62.3664 8.80198 61.3409 7.86686 60.1538 7.17874C60.0816 6.9229 59.9278 6.69764 59.7159 6.53719C59.504 6.37675 59.2454 6.2899 58.9796 6.28984C58.8008 6.28883 58.6241 6.32957 58.4638 6.40882C58.2531 6.50595 58.0747 6.66142 57.9496 6.85682C57.8245 7.05222 57.7581 7.27937 57.7581 7.51137C57.7578 7.63324 57.7761 7.75443 57.8123 7.87079C57.8894 8.12003 58.0442 8.33804 58.2542 8.49293C58.4641 8.64783 58.7181 8.73149 58.979 8.73166V8.73166ZM61.9484 22.062C61.86 22.1069 61.7623 22.1306 61.6631 22.1311C61.5806 22.1312 61.4989 22.115 61.4227 22.0835C61.3465 22.052 61.2773 22.0057 61.2189 21.9474C61.1606 21.8891 61.1144 21.8198 61.0828 21.7436C61.0513 21.6674 61.0351 21.5857 61.0352 21.5032C61.0358 21.4041 61.0595 21.3064 61.1043 21.2179C61.1494 21.1299 61.2146 21.0537 61.2947 20.9956C61.3748 20.9376 61.4674 20.8993 61.5652 20.8839C61.6629 20.8684 61.7628 20.8764 61.8569 20.907C61.951 20.9376 62.0365 20.99 62.1064 21.0599C62.1764 21.1299 62.2288 21.2154 62.2594 21.3094C62.29 21.4035 62.2979 21.5035 62.2825 21.6012C62.2671 21.6989 62.2288 21.7916 62.1707 21.8717C62.1126 21.9517 62.0365 22.017 61.9484 22.062V22.062ZM58.979 6.88161C59.1032 6.88149 59.2247 6.91822 59.328 6.98717C59.4314 7.05612 59.512 7.15418 59.5596 7.26893C59.6072 7.38369 59.6197 7.50999 59.5955 7.63185C59.5712 7.75371 59.5114 7.86564 59.4236 7.9535C59.3357 8.04135 59.2238 8.10116 59.1019 8.12537C58.9801 8.14958 58.8538 8.13709 58.739 8.08949C58.6243 8.04189 58.5262 7.96131 58.4573 7.85796C58.3883 7.75461 58.3516 7.63312 58.3517 7.50888C58.3522 7.34273 58.4185 7.18353 58.536 7.0661C58.6535 6.94867 58.8128 6.88256 58.979 6.88223V6.88161Z" fill="#157066"/>
<path d="M60.1391 2.43774C60.3255 2.4386 60.5096 2.39594 60.6767 2.31316C65.8705 4.42421 69.5432 9.52587 69.5432 15.4685C69.5469 18.381 68.6494 21.2233 66.9737 23.6056C66.6575 23.6167 66.3579 23.75 66.138 23.9775C65.9181 24.205 65.795 24.5088 65.7945 24.8252C65.7946 24.8987 65.8019 24.9719 65.8163 25.0439C65.8671 25.3252 66.0152 25.5798 66.2345 25.7631C66.4539 25.9464 66.7308 26.0468 67.0167 26.0468C67.0341 26.048 67.0516 26.048 67.069 26.0468C67.3836 26.034 67.6811 25.9 67.8991 25.6727C68.1171 25.4455 68.2386 25.1426 68.2382 24.8277C68.238 24.7567 68.2317 24.6859 68.2195 24.6159C70.1221 21.9466 71.1419 18.7489 71.136 15.471C71.136 8.85748 67.0709 3.19521 61.3021 0.846824C61.213 0.569877 61.028 0.333845 60.7803 0.181282C60.5326 0.0287179 60.2386 -0.0303405 59.9512 0.0147521C59.6638 0.0598446 59.402 0.206121 59.2129 0.427213C59.0238 0.648305 58.92 0.929666 58.92 1.22057C58.9198 1.41065 58.9646 1.59808 59.0509 1.76749C59.1522 1.96916 59.3077 2.13867 59.4999 2.25703C59.692 2.3754 59.9134 2.43797 60.1391 2.43774V2.43774ZM67.0167 25.4506C66.8924 25.4508 66.7709 25.414 66.6676 25.3451C66.5642 25.2761 66.4837 25.1781 66.4361 25.0633C66.3885 24.9486 66.376 24.8223 66.4002 24.7004C66.4244 24.5785 66.4842 24.4666 66.572 24.3787C66.6599 24.2909 66.7718 24.2311 66.8937 24.2069C67.0156 24.1827 67.1419 24.1952 67.2566 24.2428C67.3714 24.2904 67.4694 24.3709 67.5384 24.4743C67.6073 24.5776 67.6441 24.6991 67.6439 24.8234C67.6436 24.9896 67.5774 25.149 67.4599 25.2665C67.3423 25.3841 67.1829 25.4503 67.0167 25.4506ZM60.1391 0.590184C60.2631 0.589445 60.3846 0.625535 60.4881 0.693886C60.5916 0.762237 60.6725 0.859773 60.7206 0.974138C60.7686 1.0885 60.7816 1.21455 60.758 1.33632C60.7343 1.45809 60.6751 1.5701 60.5877 1.65816C60.5003 1.74623 60.3888 1.80638 60.2672 1.831C60.1456 1.85563 60.0195 1.84362 59.9047 1.79649C59.79 1.74936 59.6918 1.66924 59.6226 1.56627C59.5535 1.46331 59.5164 1.34212 59.5162 1.21808C59.516 1.05236 59.5814 0.893309 59.6981 0.775663C59.8148 0.658016 59.9734 0.591336 60.1391 0.590184V0.590184Z" fill="#157066"/>
<path d="M83.9397 19V8.80597H79.9312V6.90539H90.1944V8.80597H86.1859V19H83.9397ZM93.9534 11.9333H99.9662V13.782H93.9534V11.9333ZM94.1262 17.1167H100.951V19H91.8801V6.90539H100.709V8.78869H94.1262V17.1167ZM103.455 19V6.90539H105.304L112.889 16.2182H111.973V6.90539H114.202V19H112.353L104.768 9.68715H105.684V19H103.455ZM119.516 11.9333H125.529V13.782H119.516V11.9333ZM119.689 17.1167H126.514V19H117.443V6.90539H126.272V8.78869H119.689V17.1167ZM134.616 19.0864C133.717 19.0864 132.882 18.9366 132.11 18.6372C131.35 18.3262 130.688 17.8942 130.123 17.3413C129.559 16.7884 129.121 16.1434 128.81 15.4062C128.499 14.6575 128.344 13.8396 128.344 12.9527C128.344 12.0658 128.499 11.2537 128.81 10.5165C129.121 9.76778 129.559 9.11697 130.123 8.56408C130.699 8.01118 131.367 7.58499 132.128 7.28551C132.888 6.9745 133.717 6.819 134.616 6.819C135.468 6.819 136.263 6.95722 137 7.23367C137.749 7.51012 138.388 7.93055 138.918 8.49497L138.365 9.06514C137.847 8.55832 137.271 8.19548 136.637 7.97663C136.015 7.74625 135.353 7.63107 134.65 7.63107C133.879 7.63107 133.159 7.76353 132.491 8.02846C131.834 8.29339 131.258 8.66775 130.763 9.15153C130.279 9.63532 129.899 10.1997 129.622 10.8448C129.357 11.4898 129.225 12.1925 129.225 12.9527C129.225 13.7129 129.357 14.4156 129.622 15.0606C129.899 15.7057 130.279 16.2701 130.763 16.7539C131.258 17.2376 131.834 17.612 132.491 17.8769C133.159 18.1419 133.879 18.2743 134.65 18.2743C135.353 18.2743 136.015 18.1649 136.637 17.946C137.271 17.7157 137.847 17.3413 138.365 16.823L138.918 17.3931C138.388 17.9576 137.749 18.3838 137 18.6717C136.263 18.9482 135.468 19.0864 134.616 19.0864ZM139.527 19L145.091 6.90539H145.972L151.536 19H150.585L145.333 7.45829H145.713L140.478 19H139.527ZM141.566 15.5962L141.86 14.8533H149.099L149.393 15.5962H141.566ZM153.731 19V6.90539H154.612V18.2052H161.575V19H153.731ZM163.838 19V6.90539H164.719V18.2052H171.682V19H163.838Z" fill="#157066"/>
<path d="M104.61 27.968C104.333 27.968 104.068 27.9237 103.812 27.8351C103.561 27.743 103.366 27.626 103.228 27.4842L103.382 27.1812C103.513 27.3088 103.688 27.4169 103.908 27.5055C104.131 27.5906 104.365 27.6331 104.61 27.6331C104.844 27.6331 105.033 27.6047 105.179 27.548C105.328 27.4878 105.436 27.408 105.503 27.3088C105.574 27.2096 105.609 27.0997 105.609 26.9792C105.609 26.8339 105.567 26.7169 105.482 26.6283C105.4 26.5397 105.292 26.4706 105.157 26.421C105.023 26.3678 104.874 26.3217 104.711 26.2828C104.548 26.2438 104.385 26.203 104.222 26.1605C104.059 26.1144 103.908 26.0542 103.77 25.9797C103.635 25.9053 103.525 25.8078 103.44 25.6873C103.359 25.5633 103.318 25.402 103.318 25.2035C103.318 25.0192 103.366 24.8509 103.462 24.6985C103.561 24.5425 103.711 24.4185 103.913 24.3264C104.115 24.2307 104.374 24.1828 104.69 24.1828C104.899 24.1828 105.106 24.2129 105.312 24.2732C105.517 24.3299 105.694 24.4096 105.843 24.5124L105.71 24.8261C105.551 24.7198 105.381 24.6418 105.2 24.5922C105.023 24.5425 104.851 24.5177 104.684 24.5177C104.461 24.5177 104.277 24.5479 104.131 24.6081C103.986 24.6684 103.878 24.7499 103.807 24.8527C103.74 24.9519 103.706 25.0653 103.706 25.1929C103.706 25.3382 103.747 25.4552 103.828 25.5438C103.913 25.6324 104.023 25.7015 104.158 25.7511C104.296 25.8007 104.447 25.845 104.61 25.884C104.773 25.923 104.934 25.9655 105.094 26.0116C105.257 26.0577 105.406 26.1179 105.54 26.1924C105.678 26.2633 105.788 26.359 105.87 26.4795C105.955 26.6 105.997 26.7577 105.997 26.9526C105.997 27.1334 105.948 27.3017 105.849 27.4577C105.749 27.6101 105.597 27.7341 105.391 27.8298C105.189 27.9219 104.929 27.968 104.61 27.968ZM106.855 27.9361V24.2147H107.179L108.88 27.1174H108.71L110.395 24.2147H110.72V27.9361H110.342V24.8048H110.433L108.88 27.463H108.694L107.131 24.8048H107.232V27.9361H106.855ZM111.337 27.9361L113.038 24.2147H113.426L115.127 27.9361H114.713L113.15 24.4433H113.309L111.746 27.9361H111.337ZM112.007 26.942L112.124 26.623H114.287L114.404 26.942H112.007ZM115.743 27.9361V24.2147H117.136C117.451 24.2147 117.722 24.2661 117.949 24.3689C118.176 24.4681 118.35 24.6134 118.47 24.8048C118.594 24.9927 118.656 25.2213 118.656 25.4906C118.656 25.7529 118.594 25.9797 118.47 26.1711C118.35 26.359 118.176 26.5043 117.949 26.607C117.722 26.7063 117.451 26.7559 117.136 26.7559H115.961L116.136 26.5752V27.9361H115.743ZM118.284 27.9361L117.327 26.5858H117.752L118.715 27.9361H118.284ZM116.136 26.607L115.961 26.421H117.125C117.497 26.421 117.779 26.3395 117.97 26.1764C118.165 26.0134 118.263 25.7848 118.263 25.4906C118.263 25.1929 118.165 24.9625 117.97 24.7995C117.779 24.6365 117.497 24.555 117.125 24.555H115.961L116.136 24.3689V26.607ZM120.256 27.9361V24.555H118.948V24.2147H121.957V24.555H120.649V27.9361H120.256ZM124.881 27.968C124.64 27.968 124.425 27.929 124.237 27.8511C124.05 27.7695 123.901 27.6579 123.791 27.5161C123.684 27.3744 123.631 27.2096 123.631 27.0217C123.631 26.8622 123.667 26.7169 123.738 26.5858C123.809 26.4511 123.922 26.32 124.078 26.1924C124.237 26.0612 124.448 25.9248 124.711 25.783C124.934 25.659 125.107 25.5526 125.232 25.464C125.359 25.3719 125.45 25.2851 125.503 25.2035C125.556 25.1185 125.582 25.0281 125.582 24.9324C125.582 24.7942 125.535 24.6825 125.439 24.5975C125.347 24.5124 125.214 24.4699 125.04 24.4699C124.852 24.4699 124.707 24.5177 124.604 24.6134C124.501 24.7056 124.45 24.8261 124.45 24.9749C124.45 25.0494 124.461 25.1203 124.482 25.1876C124.507 25.2549 124.551 25.3294 124.615 25.4109C124.682 25.4924 124.774 25.5952 124.891 25.7192L126.858 27.7447L126.64 27.9946L124.588 25.884C124.464 25.7529 124.365 25.6395 124.291 25.5438C124.22 25.4445 124.17 25.3506 124.142 25.262C124.113 25.1734 124.099 25.0795 124.099 24.9803C124.099 24.8208 124.136 24.6825 124.211 24.5656C124.289 24.4451 124.399 24.3529 124.54 24.2891C124.682 24.2218 124.849 24.1881 125.04 24.1881C125.214 24.1881 125.364 24.2183 125.492 24.2785C125.623 24.3352 125.724 24.4185 125.795 24.5284C125.869 24.6382 125.907 24.7711 125.907 24.9271C125.907 25.0618 125.873 25.1876 125.806 25.3046C125.742 25.4215 125.636 25.5367 125.487 25.6501C125.338 25.76 125.136 25.884 124.881 26.0223C124.657 26.1463 124.48 26.2597 124.349 26.3625C124.221 26.4653 124.131 26.5663 124.078 26.6655C124.025 26.7612 123.998 26.8675 123.998 26.9845C123.998 27.1192 124.035 27.2379 124.11 27.3407C124.188 27.4399 124.294 27.5179 124.429 27.5746C124.567 27.6278 124.725 27.6544 124.902 27.6544C125.15 27.6544 125.372 27.603 125.566 27.5002C125.761 27.3974 125.924 27.2415 126.056 27.0324C126.19 26.8232 126.288 26.561 126.348 26.2455L126.651 26.3412C126.584 26.6957 126.468 26.9934 126.305 27.2344C126.142 27.4754 125.94 27.6579 125.699 27.782C125.458 27.906 125.185 27.968 124.881 27.968ZM129.951 27.968C129.674 27.968 129.408 27.9237 129.153 27.8351C128.902 27.743 128.707 27.626 128.568 27.4842L128.723 27.1812C128.854 27.3088 129.029 27.4169 129.249 27.5055C129.472 27.5906 129.706 27.6331 129.951 27.6331C130.185 27.6331 130.374 27.6047 130.519 27.548C130.668 27.4878 130.776 27.408 130.844 27.3088C130.915 27.2096 130.95 27.0997 130.95 26.9792C130.95 26.8339 130.908 26.7169 130.823 26.6283C130.741 26.5397 130.633 26.4706 130.498 26.421C130.364 26.3678 130.215 26.3217 130.052 26.2828C129.889 26.2438 129.726 26.203 129.563 26.1605C129.4 26.1144 129.249 26.0542 129.111 25.9797C128.976 25.9053 128.866 25.8078 128.781 25.6873C128.7 25.5633 128.659 25.402 128.659 25.2035C128.659 25.0192 128.707 24.8509 128.802 24.6985C128.902 24.5425 129.052 24.4185 129.254 24.3264C129.456 24.2307 129.715 24.1828 130.03 24.1828C130.239 24.1828 130.447 24.2129 130.652 24.2732C130.858 24.3299 131.035 24.4096 131.184 24.5124L131.051 24.8261C130.892 24.7198 130.722 24.6418 130.541 24.5922C130.364 24.5425 130.192 24.5177 130.025 24.5177C129.802 24.5177 129.617 24.5479 129.472 24.6081C129.327 24.6684 129.219 24.7499 129.148 24.8527C129.081 24.9519 129.047 25.0653 129.047 25.1929C129.047 25.3382 129.088 25.4552 129.169 25.5438C129.254 25.6324 129.364 25.7015 129.499 25.7511C129.637 25.8007 129.788 25.845 129.951 25.884C130.114 25.923 130.275 25.9655 130.434 26.0116C130.597 26.0577 130.746 26.1179 130.881 26.1924C131.019 26.2633 131.129 26.359 131.211 26.4795C131.296 26.6 131.338 26.7577 131.338 26.9526C131.338 27.1334 131.289 27.3017 131.189 27.4577C131.09 27.6101 130.938 27.7341 130.732 27.8298C130.53 27.9219 130.27 27.968 129.951 27.968ZM132.195 27.9361V24.2147H132.589V27.9361H132.195ZM133.8 27.9361V24.2147H134.124L135.825 27.1174H135.655L137.34 24.2147H137.665V27.9361H137.287V24.8048H137.377L135.825 27.463H135.639L134.076 24.8048H134.177V27.9361H133.8ZM138.877 27.9361V24.2147H140.27C140.585 24.2147 140.857 24.2661 141.083 24.3689C141.31 24.4681 141.484 24.6134 141.604 24.8048C141.728 24.9927 141.79 25.2213 141.79 25.4906C141.79 25.7529 141.728 25.9797 141.604 26.1711C141.484 26.359 141.31 26.5043 141.083 26.607C140.857 26.7098 140.585 26.7612 140.27 26.7612H139.095L139.271 26.5752V27.9361H138.877ZM139.271 26.607L139.095 26.4157H140.259C140.631 26.4157 140.913 26.3359 141.105 26.1764C141.3 26.0134 141.397 25.7848 141.397 25.4906C141.397 25.1929 141.3 24.9625 141.105 24.7995C140.913 24.6365 140.631 24.555 140.259 24.555H139.095L139.271 24.3689V26.607ZM142.641 27.9361V24.2147H143.035V27.5959H145.118V27.9361H142.641ZM146.123 25.8787H148.09V26.2136H146.123V25.8787ZM146.165 27.5959H148.403V27.9361H145.772V24.2147H148.324V24.555H146.165V27.5959Z" fill="#157066"/>
<g clip-path="url(#clip0_2571_4466)">
<path d="M211.919 190.326L212.191 191.154L211.919 190.326C210.37 190.836 208.699 190.836 207.151 190.326L206.879 191.154L207.151 190.326C199.126 187.686 159.407 172.098 159.407 125.226V94.0417C159.407 92.0186 160.21 90.0784 161.641 88.6478C163.072 87.2172 165.012 86.4135 167.035 86.4135H252.035C254.058 86.4135 255.998 87.2172 257.429 88.6478C258.859 90.0784 259.663 92.0186 259.663 94.0417V125.226C259.663 172.098 219.943 187.686 211.919 190.326Z" fill="#E1F9F7" stroke="#20A99A" stroke-width="1.74359"/>
<path d="M209.535 139.927C211.076 139.927 212.325 138.678 212.325 137.137C212.325 135.596 211.076 134.347 209.535 134.347C207.994 134.347 206.745 135.596 206.745 137.137C206.745 138.678 207.994 139.927 209.535 139.927Z" fill="#157066"/>
<path d="M220.285 126.541V124.401C220.285 119.779 219.172 113.651 209.535 113.651C199.897 113.651 198.785 119.779 198.785 124.401V126.541C193.992 127.14 192.417 129.571 192.417 135.545V138.729C192.417 145.747 194.557 147.887 201.575 147.887H217.495C224.513 147.887 226.653 145.747 226.653 138.729V135.545C226.653 129.571 225.078 127.14 220.285 126.541ZM209.535 142.307C206.676 142.307 204.365 139.979 204.365 137.137C204.365 134.278 206.693 131.967 209.535 131.967C212.376 131.967 214.704 134.295 214.704 137.137C214.704 139.996 212.394 142.307 209.535 142.307ZM201.575 126.387C201.438 126.387 201.318 126.387 201.181 126.387V124.401C201.181 119.386 202.602 116.048 209.535 116.048C216.468 116.048 217.888 119.386 217.888 124.401V126.404C217.751 126.404 217.632 126.404 217.495 126.404H201.575V126.387Z" fill="#157066"/>
</g>
<path d="M421.975 122.763C422.667 123.657 423.686 124.238 424.808 124.38C425.929 124.522 427.061 124.213 427.954 123.521C428.847 122.828 429.429 121.809 429.571 120.688C429.713 119.567 429.404 118.435 428.711 117.542" stroke="#20A99A" stroke-width="1.67962" stroke-linecap="round" stroke-linejoin="round"/>
<path d="M388.294 148.871C388.986 149.764 389.296 150.896 389.154 152.017M387.537 154.85C386.643 155.542 385.512 155.851 384.39 155.709C383.269 155.567 382.25 154.986 381.558 154.092" stroke="#20A99A" stroke-width="1.67962" stroke-linecap="round" stroke-linejoin="round"/>
<path d="M374.822 159.314C375.514 160.207 375.823 161.339 375.681 162.46C375.539 163.581 374.958 164.6 374.064 165.293C373.171 165.985 372.039 166.294 370.918 166.152C369.797 166.01 368.778 165.429 368.086 164.535" stroke="#20A99A" stroke-width="1.67962" stroke-linecap="round" stroke-linejoin="round"/>
<path d="M401.766 138.428C402.459 139.321 402.768 140.453 402.626 141.574C402.484 142.695 401.902 143.714 401.009 144.407C400.116 145.099 398.984 145.408 397.863 145.266C397.284 145.193 396.733 145.003 396.24 144.713M395.03 143.649C395.119 143.764 395.214 143.874 395.313 143.978" stroke="#20A99A" stroke-width="1.67962" stroke-linecap="round" stroke-linejoin="round"/>
<path d="M415.239 127.985C415.459 128.268 415.64 128.576 415.78 128.9M408.503 133.206C409.195 134.1 410.214 134.681 411.335 134.823C412.456 134.965 413.588 134.656 414.481 133.964C415.375 133.271 415.956 132.252 416.098 131.131C416.153 130.702 416.141 130.27 416.067 129.852" stroke="#20A99A" stroke-width="1.67962" stroke-linecap="round" stroke-linejoin="round"/>
<path d="M360.49 166.611C360.632 165.49 361.213 164.471 362.107 163.778C363 163.086 364.132 162.777 365.253 162.919C366.374 163.061 367.393 163.642 368.085 164.536" stroke="#20A99A" stroke-width="1.67962" stroke-linecap="round" stroke-linejoin="round"/>
<path d="M388.294 148.871C387.602 147.978 387.293 146.846 387.435 145.725C387.577 144.603 388.158 143.585 389.051 142.892C389.945 142.2 391.076 141.89 392.198 142.033C393.319 142.175 394.338 142.756 395.03 143.649" stroke="#20A99A" stroke-width="1.67962" stroke-linecap="round" stroke-linejoin="round"/>
<path d="M381.558 154.092C380.865 153.199 379.847 152.618 378.725 152.476C377.604 152.334 376.472 152.643 375.579 153.335C374.686 154.028 374.104 155.046 373.962 156.168C373.874 156.861 373.959 157.558 374.2 158.201" stroke="#20A99A" stroke-width="1.67962" stroke-linecap="round" stroke-linejoin="round"/>
<path d="M401.767 138.428C401.074 137.535 400.765 136.403 400.907 135.282C400.994 134.596 401.245 133.948 401.632 133.39M408.503 133.206C407.81 132.313 406.791 131.731 405.67 131.589C404.984 131.503 404.295 131.584 403.658 131.82" stroke="#20A99A" stroke-width="1.67962" stroke-linecap="round" stroke-linejoin="round"/>
<path d="M415.239 127.985C414.546 127.092 414.237 125.96 414.379 124.839C414.521 123.717 415.103 122.698 415.996 122.006C416.889 121.314 418.021 121.004 419.142 121.146C420.264 121.288 421.282 121.87 421.975 122.763" stroke="#20A99A" stroke-width="1.67962" stroke-linecap="round" stroke-linejoin="round"/>
<path d="M13.7059 177.42C13.0135 178.313 12.7043 179.445 12.8463 180.566M14.4632 183.399C15.3565 184.091 16.4882 184.4 17.6095 184.258C18.7307 184.116 19.7496 183.535 20.442 182.641" stroke="#20A99A" stroke-width="1.67962" stroke-linecap="round" stroke-linejoin="round"/>
<path d="M27.1783 187.863C26.4859 188.756 26.1767 189.888 26.3187 191.009C26.4607 192.13 27.0424 193.149 27.9356 193.842C28.8289 194.534 29.9606 194.843 31.0819 194.701C32.2031 194.559 33.222 193.978 33.9144 193.084" stroke="#20A99A" stroke-width="1.67962" stroke-linecap="round" stroke-linejoin="round"/>
<path d="M0.23361 166.977C-0.458802 167.87 -0.768007 169.002 -0.625983 170.123C-0.483959 171.244 0.0976597 172.263 0.990924 172.956C1.88419 173.648 3.01593 173.957 4.13717 173.815C4.7158 173.742 5.26718 173.552 5.76049 173.262M6.96973 172.198C6.88076 172.313 6.7864 172.423 6.68713 172.527" stroke="#20A99A" stroke-width="1.67962" stroke-linecap="round" stroke-linejoin="round"/>
<path d="M41.5103 195.16C41.3682 194.039 40.7866 193.02 39.8934 192.327C39.0001 191.635 37.8683 191.326 36.7471 191.468C35.6259 191.61 34.607 192.191 33.9146 193.085" stroke="#20A99A" stroke-width="1.67962" stroke-linecap="round" stroke-linejoin="round"/>
<path d="M13.7058 177.42C14.3983 176.527 14.7075 175.395 14.5654 174.274C14.4234 173.152 13.8418 172.133 12.9485 171.441C12.0553 170.749 10.9235 170.439 9.80228 170.581C8.68104 170.724 7.66214 171.305 6.96973 172.198" stroke="#20A99A" stroke-width="1.67962" stroke-linecap="round" stroke-linejoin="round"/>
<path d="M20.442 182.641C21.1344 181.748 22.1533 181.167 23.2746 181.025C24.3958 180.882 25.5276 181.192 26.4208 181.884C27.3141 182.577 27.8957 183.595 28.0377 184.717C28.1255 185.41 28.0409 186.107 27.7997 186.75" stroke="#20A99A" stroke-width="1.67962" stroke-linecap="round" stroke-linejoin="round"/>
<path d="M0.233553 166.977C0.925965 166.084 1.23517 164.952 1.09315 163.831C1.00629 163.145 0.755007 162.497 0.368572 161.939M-6.50256 161.755C-5.81015 160.862 -4.79125 160.28 -3.67001 160.138C-2.98428 160.052 -2.29462 160.133 -1.65799 160.369" stroke="#20A99A" stroke-width="1.67962" stroke-linecap="round" stroke-linejoin="round"/>
<defs>
<clipPath id="clip0_2571_4466">
<rect width="136" height="136" fill="white" transform="translate(141.535 64.2917)"/>
</clipPath>
</defs>
</svg>
