<svg width="190" height="203" viewBox="0 0 190 203" fill="none" xmlns="http://www.w3.org/2000/svg">
<path d="M27.3452 82.9349L14.1008 99.8877C6.46838 109.657 8.68828 123.845 18.9401 130.816L28.1163 137.056C33.9865 141.047 37.5002 147.686 37.5002 154.785V162.947C37.5002 170.666 41.65 177.79 48.3649 181.597L77.2815 197.993C82.8068 201.126 89.437 201.648 95.3843 199.418L138 183.437L174.971 163.529C183.767 158.793 188.126 148.61 185.482 138.977L183.765 132.723C183.257 130.874 183 128.965 183 127.047V88.0992C183 81.6932 180.018 75.6523 174.932 71.7569L172.194 69.6594C165.069 64.2019 154.923 65.2519 149.066 72.0529C145.85 75.7884 141.165 77.9366 136.236 77.9366H130.548C124.471 77.9366 118.678 80.5162 114.612 85.0338L113.26 86.5363C107.124 93.354 97.331 95.5132 88.897 91.9078L52.6674 76.4203C43.726 72.598 33.3318 75.2721 27.3452 82.9349Z" fill="#EFFFFE"/>
<rect x="57.1702" y="37.1902" width="76.6597" height="122.252" rx="10.0498" fill="white" stroke="#157066" stroke-width="1.33997"/>
<rect x="65.2825" y="53.7693" width="60.4348" height="92.5388" rx="3.34993" fill="#E1F9F7" stroke="#157066" stroke-width="1.33997"/>
<g clip-path="url(#clip0_2524_5647)">
<path d="M73.4124 100.193V124.122C73.4124 124.61 73.6063 125.078 73.9515 125.423C74.2966 125.768 74.7648 125.962 75.253 125.962H115.747C116.235 125.962 116.703 125.768 117.048 125.423C117.393 125.078 117.587 124.61 117.587 124.122V100.193L95.4999 85.4685L73.4124 100.193Z" stroke="#157066" stroke-width="1.9" stroke-linecap="round" stroke-linejoin="round"/>
<path d="M91.4735 113.078L73.9875 125.433" stroke="#157066" stroke-width="1.9" stroke-linecap="round" stroke-linejoin="round"/>
<path d="M117.012 125.433L99.5261 113.078" stroke="#157066" stroke-width="1.9" stroke-linecap="round" stroke-linejoin="round"/>
<path d="M117.587 100.193L99.5262 113.078H91.4735L73.4124 100.193" stroke="#157066" stroke-width="1.9" stroke-linecap="round" stroke-linejoin="round"/>
<path d="M82.7445 89.7412C82.7445 88.9105 83.4179 88.237 84.2486 88.237H108.792C109.623 88.237 110.296 88.9105 110.296 89.7412V105.767C110.296 106.255 110.059 106.714 109.66 106.995L99.8865 113.902C99.6326 114.082 99.3293 114.178 99.0184 114.178H96.5182H91.2537C90.9133 114.178 90.5829 114.063 90.3166 113.851L83.3115 108.271C82.9532 107.985 82.7445 107.552 82.7445 107.094V89.7412Z" fill="#E1F9F7" stroke="#157066" stroke-width="1.9"/>
</g>
<line x1="85.9063" y1="45.6147" x2="106.123" y2="45.6147" stroke="#157066" stroke-width="2.00996" stroke-linecap="round"/>
<circle cx="99.0477" cy="24.0375" r="2.85" stroke="#157066" stroke-width="0.95"/>
<circle cx="54.5694" cy="14.4916" r="2.85" stroke="#157066" stroke-width="0.95"/>
<path d="M31.6644 21.2004L35.6309 24.7411L29.4228 26.0217L31.6644 21.2004Z" stroke="#157066" stroke-width="0.95"/>
<path d="M133.914 2.31354L137.881 5.85432L131.673 7.13493L133.914 2.31354Z" stroke="#157066" stroke-width="0.95"/>
<path d="M45.6773 37.1416L45.7941 39.5712C45.8021 39.7358 45.8526 39.8955 45.9409 40.0346L47.2441 42.0885L44.8145 42.2053C44.6499 42.2132 44.4902 42.2637 44.3511 42.352L42.2972 43.6552L42.1804 41.2256C42.1725 41.061 42.1219 40.9013 42.0337 40.7622L40.7305 38.7084L43.1601 38.5915C43.3247 38.5836 43.4844 38.5331 43.6235 38.4448L45.6773 37.1416Z" stroke="#157066" stroke-width="0.95"/>
<path d="M128.077 20.7806L128.194 23.2102C128.201 23.3747 128.252 23.5344 128.34 23.6735L129.643 25.7274L127.214 25.8442C127.049 25.8521 126.89 25.9027 126.751 25.991L124.697 27.2941L124.58 24.8645C124.572 24.7 124.521 24.5403 124.433 24.4012L123.13 22.3473L125.56 22.2305C125.724 22.2226 125.884 22.172 126.023 22.0837L128.077 20.7806Z" stroke="#157066" stroke-width="0.95"/>
<path d="M72.0217 26.9123L72.3156 25.0457C72.3603 24.7615 72.5992 24.5483 72.8867 24.5361L74.2803 24.4768C74.5677 24.4646 74.8067 24.2513 74.8514 23.9671L75.0683 22.5892C75.113 22.305 75.352 22.0918 75.6394 22.0796L77.033 22.0203C77.3205 22.008 77.5594 21.7948 77.6041 21.5106L77.821 20.1327C77.8658 19.8485 78.1047 19.6353 78.3921 19.6231L79.7857 19.5638C80.0732 19.5515 80.3121 19.3383 80.3569 19.0541L80.5738 17.6762C80.6185 17.392 80.8574 17.1788 81.1449 17.1666L83.0327 17.0862" stroke="#157066" stroke-width="0.95"/>
<path d="M157.002 47.7464L156.709 45.8799C156.664 45.5957 156.425 45.3824 156.137 45.3702L154.744 45.3109C154.456 45.2987 154.218 45.0855 154.173 44.8013L153.956 43.4234C153.911 43.1392 153.672 42.9259 153.385 42.9137L151.991 42.8544C151.704 42.8422 151.465 42.6289 151.42 42.3447L151.203 40.9668C151.158 40.6826 150.919 40.4694 150.632 40.4572L149.238 40.3979C148.951 40.3857 148.712 40.1724 148.667 39.8882L148.45 38.5103C148.406 38.2261 148.167 38.0129 147.879 38.0007L145.991 37.9203" stroke="#157066" stroke-width="0.95"/>
<defs>
<clipPath id="clip0_2524_5647">
<rect width="58.9" height="58.9" fill="white" transform="translate(66.0498 78.106)"/>
</clipPath>
</defs>
</svg>
