<svg width="38" height="38" viewBox="0 0 38 38" fill="none" xmlns="http://www.w3.org/2000/svg">
<path d="M8.54444 34.9434C11.1673 36.5091 14.1655 37.3345 17.2201 37.3317C26.5757 37.3317 34.1876 29.7198 34.1876 20.3642C34.1913 17.2493 33.3323 14.1942 31.7058 11.5376C31.7346 11.4178 31.7491 11.295 31.7493 11.1718C31.7493 10.7729 31.601 10.3882 31.3332 10.0926C31.0653 9.797 30.697 9.61161 30.3 9.57251C30.2473 9.56597 30.1941 9.56268 30.1409 9.56267C29.722 9.56716 29.3213 9.73495 29.0242 10.0303C28.7271 10.3257 28.557 10.7254 28.55 11.1443C28.5431 11.5632 28.6999 11.9682 28.987 12.2733C29.2742 12.5784 29.6691 12.7593 30.0876 12.7777C31.55 15.2562 32.2648 18.1046 32.1459 20.9799C32.0271 23.8552 31.0796 26.6348 29.4175 28.9841C28.8151 29.83 28.1275 30.6119 27.3655 31.3175C24.9521 33.5567 21.8662 34.9353 18.588 35.2387C15.3098 35.542 12.0232 34.7531 9.23993 32.9947L8.8643 32.7568L2.864 34.3627L4.50432 28.2279L4.29108 27.8646C2.89099 25.4563 2.19298 22.7042 2.27603 19.9198C2.35909 17.1354 3.2199 14.4298 4.76104 12.1093V8.84503C2.34215 11.4529 0.805542 14.756 0.369068 18.2861C-0.0674067 21.8161 0.618399 25.394 2.32926 28.5125L0 37.2341L8.54444 34.9434ZM30.1409 11.9977C29.9926 11.998 29.847 11.9579 29.7196 11.882C29.5922 11.806 29.4878 11.6969 29.4175 11.5663C29.3519 11.4452 29.3175 11.3096 29.3175 11.1718C29.3175 11.034 29.3519 10.8984 29.4175 10.7773C29.4874 10.6494 29.5898 10.5423 29.7144 10.4669C29.8391 10.3914 29.9815 10.3503 30.1271 10.3477C30.2728 10.3451 30.4166 10.3812 30.5438 10.4522C30.6711 10.5232 30.7772 10.6266 30.8515 10.7519C30.9258 10.8773 30.9656 11.0201 30.9668 11.1658C30.968 11.3115 30.9306 11.4549 30.8584 11.5814C30.7863 11.708 30.6818 11.8132 30.5558 11.8863C30.4298 11.9594 30.2866 11.9979 30.1409 11.9977Z" fill="#157066"/>
<path d="M6.33532 10.1405C8.7991 7.50609 12.1355 5.85567 15.7245 5.49596V21.7204C15.7245 22.0836 15.8688 22.432 16.1257 22.6889C16.3825 22.9458 16.7309 23.0901 17.0942 23.0901C17.4575 23.0901 17.8058 22.9458 18.0627 22.6889C18.3196 22.432 18.4639 22.0836 18.4639 21.7204V5.47135C20.9981 5.67969 23.4362 6.53662 25.5435 7.95972C25.5937 8.34686 25.7829 8.70253 26.076 8.96043C26.369 9.21832 26.7459 9.36083 27.1362 9.36138C27.1927 9.36126 27.2491 9.35825 27.3052 9.35236C27.4956 9.33331 27.6805 9.27761 27.8498 9.18832C28.1651 9.03142 28.42 8.77512 28.5752 8.45895C28.7304 8.14279 28.7772 7.78434 28.7085 7.43892C28.6333 7.07125 28.4328 6.74107 28.1413 6.50474C27.8498 6.26841 27.4853 6.14058 27.11 6.14306C26.9363 6.14482 26.7642 6.17559 26.6007 6.2341C24.1759 4.61163 21.3706 3.64834 18.4606 3.43899C18.0505 3.40783 17.6404 3.39224 17.2172 3.39224C16.7136 3.39224 16.2133 3.41357 15.7212 3.45785C12.2653 3.76036 8.98664 5.12102 6.33203 7.35444L6.33532 10.1405ZM27.1362 6.92632C27.2825 6.92639 27.4261 6.9656 27.5522 7.03987C27.6782 7.11413 27.7821 7.22076 27.8531 7.3487C27.9228 7.47191 27.9594 7.61106 27.9594 7.75263C27.9594 7.8942 27.9228 8.03335 27.8531 8.15656C27.7817 8.28311 27.6782 8.38859 27.5531 8.46232C27.4279 8.53605 27.2855 8.57542 27.1402 8.57646C26.9949 8.5775 26.852 8.54016 26.7258 8.46822C26.5995 8.39629 26.4946 8.2923 26.4214 8.16678C26.3483 8.04126 26.3096 7.89865 26.3092 7.75338C26.3089 7.6081 26.3469 7.46531 26.4194 7.33944C26.492 7.21357 26.5965 7.10908 26.7223 7.03654C26.8482 6.964 26.991 6.92598 27.1362 6.92632Z" fill="#157066"/>
<path d="M21.9937 11.4966C22.2172 11.4983 22.4383 11.4513 22.6417 11.3588C23.9056 12.1183 24.9953 13.1355 25.8399 14.3443C26.6845 15.553 27.265 16.9261 27.5435 18.3741C27.8221 19.8221 27.7925 21.3125 27.4566 22.7483C27.1208 24.1841 26.4862 25.5331 25.5943 26.7073C25.5724 26.7061 25.5505 26.7061 25.5286 26.7073C25.2103 26.7071 24.8991 26.8014 24.6343 26.9781C24.3696 27.1549 24.1632 27.4062 24.0413 27.7003C23.9194 27.9943 23.8875 28.318 23.9496 28.6302C24.0116 28.9424 24.1649 29.2292 24.39 29.4543C24.6151 29.6794 24.9019 29.8327 25.2141 29.8947C25.5263 29.9568 25.8499 29.9249 26.144 29.803C26.4381 29.6811 26.6894 29.4747 26.8661 29.2099C27.0429 28.9452 27.1371 28.634 27.137 28.3156C27.1368 28.2655 27.1338 28.2154 27.128 28.1655C28.2452 26.7457 29.0444 25.1024 29.4714 23.347C29.8985 21.5915 29.9435 19.7647 29.6033 17.9903C29.2632 16.216 28.5459 14.5354 27.4999 13.0623C26.4539 11.5892 25.1037 10.3579 23.5406 9.45192C23.4455 9.11507 23.2431 8.81848 22.964 8.60722C22.685 8.39597 22.3446 8.28162 21.9946 8.28155C21.7591 8.28022 21.5266 8.33385 21.3155 8.4382C21.0381 8.56609 20.8031 8.77079 20.6384 9.02807C20.4737 9.28534 20.3862 9.58442 20.3862 9.88988C20.3859 10.0503 20.4099 10.2099 20.4576 10.3631C20.5591 10.6913 20.763 10.9783 21.0394 11.1823C21.3158 11.3862 21.6502 11.4964 21.9937 11.4966ZM25.9035 29.048C25.787 29.1071 25.6584 29.1383 25.5278 29.1391C25.4192 29.1392 25.3117 29.1179 25.2113 29.0764C25.111 29.0349 25.0198 28.974 24.943 28.8972C24.8662 28.8204 24.8053 28.7292 24.7638 28.6288C24.7223 28.5285 24.701 28.4209 24.7011 28.3123C24.7019 28.1818 24.733 28.0532 24.7921 27.9367C24.8514 27.8207 24.9373 27.7204 25.0427 27.644C25.1482 27.5675 25.2702 27.5171 25.3989 27.4968C25.5275 27.4765 25.6591 27.487 25.783 27.5273C25.9069 27.5675 26.0194 27.6366 26.1115 27.7286C26.2036 27.8207 26.2726 27.9333 26.3129 28.0572C26.3532 28.181 26.3636 28.3127 26.3433 28.4413C26.323 28.57 26.2726 28.692 26.1962 28.7974C26.1197 28.9029 26.0194 28.9888 25.9035 29.048ZM21.9937 9.0607C22.1573 9.06054 22.3173 9.10891 22.4534 9.19969C22.5894 9.29047 22.6955 9.41958 22.7582 9.57067C22.8209 9.72177 22.8373 9.88806 22.8055 10.0485C22.7736 10.209 22.6948 10.3563 22.5791 10.472C22.4635 10.5877 22.3161 10.6664 22.1556 10.6983C21.9952 10.7302 21.8289 10.7137 21.6778 10.6511C21.5267 10.5884 21.3976 10.4823 21.3068 10.3462C21.2161 10.2101 21.1677 10.0502 21.1679 9.8866C21.1685 9.66784 21.2557 9.45823 21.4105 9.30361C21.5653 9.14899 21.775 9.06195 21.9937 9.06152V9.0607Z" fill="#157066"/>
<path d="M23.5208 3.20967C23.7663 3.21079 24.0087 3.15462 24.2286 3.04564C31.0671 5.82516 35.9028 12.5423 35.9028 20.3666C35.9077 24.2014 34.7259 27.9438 32.5196 31.0804C32.1033 31.095 31.7089 31.2706 31.4193 31.5701C31.1298 31.8696 30.9677 32.2697 30.9671 32.6863C30.9672 32.7829 30.9768 32.8794 30.9958 32.9741C31.0627 33.3446 31.2576 33.6797 31.5465 33.9211C31.8353 34.1624 32.1998 34.2946 32.5762 34.2946C32.5992 34.2962 32.6222 34.2962 32.6451 34.2946C33.0594 34.2779 33.4511 34.1014 33.7381 33.8021C34.0251 33.5029 34.1851 33.1042 34.1846 32.6895C34.1843 32.5961 34.176 32.5028 34.16 32.4107C36.665 28.8961 38.0078 24.6859 38 20.3699C38 11.6623 32.6476 4.20698 25.0521 1.11498C24.9348 0.750331 24.6912 0.439559 24.3651 0.238685C24.039 0.0378116 23.6518 -0.0399479 23.2734 0.0194234C22.895 0.0787947 22.5503 0.271391 22.3014 0.562493C22.0524 0.853594 21.9157 1.22405 21.9158 1.60707C21.9155 1.85734 21.9745 2.10412 22.088 2.32717C22.2215 2.59271 22.4261 2.81589 22.6792 2.97174C22.9322 3.12759 23.2236 3.20997 23.5208 3.20967ZM32.5762 33.5097C32.4127 33.5099 32.2527 33.4615 32.1166 33.3707C31.9805 33.2799 31.8744 33.1508 31.8118 32.9997C31.7491 32.8486 31.7327 32.6824 31.7645 32.5219C31.7964 32.3615 31.8752 32.2141 31.9908 32.0984C32.1065 31.9827 32.2539 31.904 32.4143 31.8721C32.5748 31.8402 32.7411 31.8567 32.8922 31.9194C33.0433 31.982 33.1724 32.0881 33.2631 32.2242C33.3539 32.3603 33.4023 32.5202 33.4021 32.6838C33.4017 32.9027 33.3145 33.1125 33.1598 33.2673C33.005 33.4221 32.7951 33.5093 32.5762 33.5097ZM23.5208 0.777069C23.6841 0.776095 23.8441 0.823615 23.9804 0.913609C24.1167 1.0036 24.2232 1.13202 24.2864 1.2826C24.3497 1.43318 24.3668 1.59915 24.3357 1.75948C24.3045 1.9198 24.2265 2.06728 24.1115 2.18323C23.9965 2.29918 23.8496 2.37838 23.6895 2.4108C23.5295 2.44322 23.3634 2.42741 23.2123 2.36536C23.0612 2.30331 22.9319 2.19781 22.8409 2.06224C22.7498 1.92667 22.701 1.76712 22.7007 1.60379C22.7004 1.3856 22.7866 1.17618 22.9402 1.02128C23.0939 0.86638 23.3026 0.778586 23.5208 0.777069Z" fill="#157066"/>
</svg>
