<svg width="31" height="31" viewBox="0 0 31 31" fill="none" xmlns="http://www.w3.org/2000/svg">
<path fill-rule="evenodd" clip-rule="evenodd" d="M19.701 0.191004C18.8011 -0.0501343 17.876 0.483931 17.6349 1.38387L14.4659 13.2109L2.63889 10.0418C1.73896 9.8007 0.81393 10.3348 0.572792 11.2347C0.331654 12.1346 0.865718 13.0597 1.76566 13.3008L13.5926 16.4698L10.4237 28.2966C10.1825 29.1965 10.7166 30.1216 11.6165 30.3627C12.5165 30.6038 13.4415 30.0698 13.6826 29.1698L16.8516 17.3431L28.6784 20.5121C29.5783 20.7532 30.5033 20.2191 30.7445 19.3192C30.9856 18.4192 30.4516 17.4942 29.5516 17.2531L17.7248 14.0841L20.8939 2.25711C21.135 1.35717 20.6009 0.432142 19.701 0.191004Z" fill="#F0ABAF"/>
</svg>
