<svg width="16" height="16" viewBox="0 0 16 16" fill="none" xmlns="http://www.w3.org/2000/svg">
<path d="M7.94922 0.6875C6.50295 0.6875 5.08915 1.11637 3.88661 1.91988C2.68408 2.72339 1.74682 3.86544 1.19335 5.20163C0.639887 6.53781 0.495075 8.00811 0.77723 9.4266C1.05938 10.8451 1.75583 12.148 2.7785 13.1707C3.80118 14.1934 5.10414 14.8898 6.52262 15.172C7.94111 15.4541 9.41141 15.3093 10.7476 14.7559C12.0838 14.2024 13.2258 13.2651 14.0293 12.0626C14.8329 10.8601 15.2617 9.44628 15.2617 8C15.258 6.06175 14.4864 4.20394 13.1158 2.83339C11.7453 1.46283 9.88748 0.691217 7.94922 0.6875ZM7.38672 4.625C7.38672 4.47582 7.44599 4.33274 7.55147 4.22725C7.65696 4.12176 7.80004 4.0625 7.94922 4.0625C8.09841 4.0625 8.24148 4.12176 8.34697 4.22725C8.45246 4.33274 8.51172 4.47582 8.51172 4.625V8.5625C8.51172 8.71168 8.45246 8.85476 8.34697 8.96025C8.24148 9.06574 8.09841 9.125 7.94922 9.125C7.80004 9.125 7.65696 9.06574 7.55147 8.96025C7.44599 8.85476 7.38672 8.71168 7.38672 8.5625V4.625ZM7.94922 11.9375C7.78234 11.9375 7.61921 11.888 7.48046 11.7953C7.34171 11.7026 7.23356 11.5708 7.1697 11.4166C7.10584 11.2625 7.08913 11.0928 7.12168 10.9291C7.15424 10.7655 7.2346 10.6151 7.3526 10.4971C7.4706 10.3791 7.62094 10.2988 7.78461 10.2662C7.94829 10.2337 8.11794 10.2504 8.27211 10.3142C8.42629 10.3781 8.55806 10.4862 8.65077 10.625C8.74349 10.7637 8.79297 10.9269 8.79297 11.0938C8.79297 11.3175 8.70408 11.5321 8.54584 11.6904C8.38761 11.8486 8.173 11.9375 7.94922 11.9375Z" fill="#949494"/>
</svg>
